<svg xmlns="http://www.w3.org/2000/svg" xmlns:xlink="http://www.w3.org/1999/xlink" width="127" height="110" viewBox="" version="1.1" >
    <title>Franchise - 1</title>
    <g xmlns="http://www.w3.org/2000/svg" id="Group-13">
                <path d="M51.8559896,84.7326948 C49.0431339,86.8721712 45.8653121,88.2785828 42.2650894,88.5635841 C36.9723548,88.9826826 29.8409767,85.9914206 26.9641428,80.6271743 C24.0146065,75.1277581 23.680539,69.6458638 26.5835457,64.1314286 C29.3829516,58.814027 34.0758913,56.1585445 39.8055673,55.3975875 C43.1178885,55.7912969 46.0826923,56.4167263 48.6890732,58.1871672 C49.4484498,58.7028157 50.2732585,59.1287084 51.0119148,59.669746 C52.353274,60.6516952 53.3736522,61.9025541 54.1599286,63.3676109 C55.5645389,65.984831 57.0116802,68.6185003 57.3315707,71.5908099 C57.902648,76.8892591 56.2228592,81.4117325 51.8559896,84.7326948 M79.8914882,68.5838138 C79.7460834,68.1940379 79.7529901,67.7520535 79.6508432,67.3429676 C79.1237509,65.2388929 78.6050192,63.1326726 78.0230366,61.0432591 C77.9408828,60.7482452 77.5541061,60.3688395 77.2614789,60.3234253 C74.7594259,59.9368677 72.2479216,59.6078825 69.7364173,59.2831884 C67.8785075,59.0428862 67.8861413,59.0543292 67.3841312,57.317502 C66.9421006,55.7887937 66.2437941,54.4374514 64.8042866,53.5423972 C64.5967213,53.4136638 64.4876677,52.8336487 64.5938132,52.5604479 C65.6396372,49.8652727 66.6890963,47.1690246 67.8563333,44.5242699 C68.2216628,43.6957279 68.2209358,43.313819 67.3510516,42.8915022 C64.541831,41.5283593 61.7544211,40.1187293 58.9957286,38.6601092 C58.2697952,38.2764123 57.8503023,38.3500764 57.3013992,38.9283036 C56.0432842,40.2535417 54.7171925,41.5172739 53.4012791,42.7885155 C52.9076298,43.2659016 52.1853315,43.6023962 51.8857976,44.1670349 C51.3430742,45.1890345 50.684027,44.9655391 49.83559,44.7327464 C47.7937432,44.1723988 45.8558608,43.1078457 43.6064486,43.4539953 C43.377436,43.489397 42.9546716,43.1546903 42.8350762,42.8961509 C41.7165498,40.4748915 40.6278314,38.0407588 39.5729196,35.59268 C39.3257314,35.0194591 39.0371029,34.9150421 38.4402162,35.0566487 C35.8458312,35.6734959 33.2489015,36.28784 30.6308882,36.7931183 C29.806443,36.952247 29.6450437,37.2830201 29.6617652,38.0114362 C29.7206542,40.5768054 29.7217447,43.1428898 29.7551878,45.7086165 C29.7631851,46.2993595 29.6424991,46.7134517 29.0081707,47.0241996 C26.9521469,48.0308227 24.9092095,49.0732051 22.9320678,50.2196469 C22.2632058,50.6076349 21.8124509,50.7474536 21.0730675,50.4041647 C18.6062752,49.2580805 16.1024046,48.1885211 13.5883557,47.1461387 C13.2986366,47.0259876 12.6588555,47.1325502 12.5174494,47.3474633 C10.8732847,49.849181 9.29673317,52.3930946 7.69509935,54.9223469 C7.27051735,55.592833 7.54533241,55.921103 8.12804213,56.4059985 C10.3625503,58.26548 12.5109062,60.2261601 14.6843443,62.1564448 C15.1561829,62.5755433 15.3139471,63.0683059 14.8915462,63.6186409 C13.4240483,65.5331915 13.0252756,67.7438289 13.1372373,70.0603136 C13.1808588,70.9650228 12.9231288,71.3426406 11.9958097,71.6226356 C9.23602667,72.4558263 6.52422724,73.4431394 4,74.2999312 C4.86079639,77.6680957 5.72195628,80.8857138 6.4806058,84.1269329 C6.65181995,84.857137 6.89391893,85.0981544 7.62894017,85.0427275 C9.9950397,84.8628585 12.3669554,84.7566535 14.7308739,84.5556864 C15.5029733,84.4898894 15.9995307,84.6618914 16.2994281,85.3856588 C17.1838528,87.5237048 18.4695947,89.374604 20.4634579,90.7831612 C20.1203026,91.7182658 19.8022296,92.63263 19.4514405,93.5344785 C18.6869748,95.5015953 17.9061511,97.4629906 17.13078,99.4258163 C16.8745041,100.074847 17.0464452,100.527917 17.7014938,100.847604 C18.8182027,101.393648 19.9647195,101.905721 21.0061813,102.571558 C22.7644888,103.694756 24.4508209,104.927021 26.3472629,106.237955 C28.2320726,104.387413 30.1634118,102.583359 31.9758826,100.669881 C32.7981467,99.8023613 33.5771529,99.6614698 34.6927712,99.9650659 C36.3053103,100.403474 37.9716493,100.940578 39.6089073,100.921268 C41.3966592,100.90017 41.5635112,101.044638 42.2363719,102.814006 C43.0299186,104.900559 43.9201594,106.951352 44.7609627,109 C48.1332634,108.38351 51.4844804,107.770597 54.9116714,107.143379 C54.8655054,106.45859 54.8575081,105.844603 54.777899,105.239914 C54.4943597,103.085061 54.1962798,100.932711 53.8836595,98.781792 C53.7404358,97.7937637 54.1501138,97.3807443 55.1323232,97.0807241 C56.3366384,96.7127614 57.4642526,96.0701675 58.582779,95.469412 C59.3018057,95.083212 59.9659421,94.5858007 60.6169921,94.0898198 C61.4548872,93.4518746 62.3545794,93.3624765 63.3226118,93.6843098 C65.7879501,94.5046272 68.2627397,95.3013435 70.7077213,96.1767301 C71.4729141,96.4510036 71.894588,96.2779288 72.2152055,95.6049396 C72.5372772,94.9301624 72.8557137,94.2518092 73.2108649,93.5938389 C74.305763,91.5655738 75.4170191,89.5462485 76.5082821,87.5490939 C74.5529511,85.7303781 72.6808644,83.7990205 70.5895799,82.1340695 C69.6953404,81.4224602 69.6615338,80.8467362 69.865464,79.942027 C70.3471174,77.7996898 70.8865692,75.6602134 71.1766518,73.4903416 C71.3435038,72.2444891 71.8000748,71.4803137 73.0189305,71.197458 C75.0062506,70.735806 76.9939341,70.2766571 78.991069,69.8611345 C79.7548077,69.7023634 80.2241016,69.4738618 79.8914882,68.5838138" id="Fill-1" fill="#E0E9EF"/>
                <g id="Group-5" transform="translate(0.000000, 33.000000)">
                    <mask  fill="white">
                        <use xmlns:xlink="http://www.w3.org/1999/xlink" xlink:href="#path-42"/>
                    </mask>
                    <g id="Clip-4"/>
                    <path d="M73.7649699,53.7457963 C71.7976505,51.9273598 69.9144514,49.9959191 67.8103449,48.3308964 C66.9106227,47.6192565 66.8766088,47.0435077 67.0814236,46.1384019 C67.5660301,43.9959726 68.1087894,41.8564041 68.4010162,39.6867965 C68.5685255,38.4405327 69.0282616,37.6763245 70.2542245,37.3934565 C72.2533634,36.9321423 74.2539653,36.4729736 76.2633449,36.0570755 C77.0317662,35.8982976 77.5039375,35.6697861 77.1692847,34.7796999 C77.0222569,34.3899072 77.0299375,33.9479037 76.9267986,33.5391578 C76.3961088,31.4349925 75.8749282,29.3283239 75.2890116,27.2388205 C75.2063542,26.9441516 74.8175718,26.5643719 74.5227847,26.5193133 C72.0053912,26.1327391 69.4784884,25.8033821 66.9515856,25.4786741 C65.0826505,25.2383615 65.0895995,25.2501626 64.5845116,23.5132607 C64.1405023,21.984129 63.4379144,20.6327284 61.9892153,19.7376357 C61.7803773,19.6088968 61.6706551,19.0292143 61.7774514,18.7556442 C62.8296875,16.0607105 63.8852153,13.3643464 65.0599745,10.7191202 C65.4279097,9.89054252 65.4268125,9.50861721 64.5519606,9.0866398 C61.7255162,7.72343821 58.9210162,6.31374757 56.1446782,4.85470704 C55.4146597,4.47099369 54.9929606,4.54466093 54.4403264,5.12291302 C53.1744977,6.44820817 51.8406412,7.71199475 50.5166597,8.9836487 C50.0196181,9.46069774 49.2928912,9.79720684 48.9915208,10.3618698 C48.4454699,11.3839134 47.7827477,11.1604084 46.9291088,10.9276056 C44.8747431,10.367234 42.9246134,9.30299262 40.6614097,9.64879953 C40.4309931,9.68420272 40.0056366,9.34983927 39.8853079,9.0909311 C38.7602894,6.66992512 37.6648958,4.23568764 36.6031505,1.78714585 C36.3544468,1.21425787 36.0640486,1.10983635 35.4635023,1.2514491 C32.8535764,1.86796525 30.2403588,2.48269336 27.606294,2.98799342 C26.776794,3.14712897 26.6144051,3.47755874 26.6312292,4.20636379 C26.6908449,6.77148578 26.6915764,9.3376806 26.7255903,11.9038754 C26.7329051,12.4942862 26.6114792,12.9087538 25.9736273,13.2191575 C23.9053634,14.225824 21.8499005,15.2682512 19.8602708,16.4151 C19.1873079,16.8031047 18.7337894,16.9429294 17.9898727,16.5992681 C15.5083218,15.4531346 12.9883681,14.3838867 10.4592708,13.3411019 C10.1677755,13.2209456 9.52407176,13.3278704 9.38179861,13.5427928 C7.72755324,16.0442605 6.14096991,18.5886413 4.52988194,21.1176449 C4.10269676,21.7881598 4.37883102,22.1164439 4.96547917,22.6013603 C7.2136875,24.4612794 9.37521528,26.4220439 11.5623449,28.3524118 C12.0370764,28.7711707 12.1950764,29.2639545 11.7708171,29.8143132 C10.2943218,31.7293039 9.89273843,33.9396787 10.0057523,36.2562632 C10.0496412,37.161369 9.79033102,37.5386454 8.85696065,37.8186524 C6.08025694,38.651879 3.35219676,39.6392346 0.812127315,40.4964209 C1.67783565,43.8643728 2.5446412,47.0821294 3.30794213,50.323488 C3.47984028,51.0537235 3.72415509,51.2951089 4.46368287,51.2393221 C6.84392361,51.0594452 9.23074769,50.9535933 11.6091597,50.75226 C12.3856273,50.6864601 12.8852292,50.8588272 13.1865995,51.5826257 C14.0768125,53.7204062 15.3708032,55.571385 17.3761597,56.9800029 C17.0316319,57.9151477 16.7112431,58.8295513 16.358669,59.7314386 C15.5891505,61.6986401 14.8039051,63.6601198 14.0234144,65.6233876 C13.7655671,66.272446 13.9385625,66.7251777 14.5976273,67.0452369 C15.7215486,67.5913043 16.8743634,68.1030413 17.9225764,68.7689073 C19.6916644,69.892154 21.3887014,71.1248286 23.2967708,72.4354619 C25.1927708,70.5851982 27.1359514,68.7807084 28.9595347,66.8675057 C29.787206,65.9995912 30.5702569,65.8586936 31.693081,66.1623028 C33.3151412,66.6010878 34.9920625,67.138215 36.6393588,67.1189041 C38.437706,67.0978052 38.6059468,67.2422789 39.2832986,69.0117231 C40.0813449,71.098008 40.9774097,73.1488898 41.8233681,75.1976258 C45.2159792,74.5811097 48.5873773,73.9681696 52.0359468,73.3412829 C51.9898634,72.656106 51.9810856,72.0420931 51.9013542,71.437378 C51.6160764,69.28279 51.316169,67.12999 51.0019977,64.978978 C50.8571644,63.9909072 51.2697199,63.5782276 52.2575856,63.2778369 C53.4700162,62.9098583 54.6041782,62.2672367 55.7291968,61.6664553 C56.4533634,61.2802387 57.121206,60.782806 57.7758819,60.2871614 C58.6196458,59.6488312 59.5244884,59.5594292 60.4988218,59.881634 C62.9792755,60.701629 65.4688727,61.4983796 67.9288449,62.3738039 C68.6987292,62.6480892 69.1229884,62.4753646 69.4455718,61.8019888 C69.7692523,61.1271825 70.0900069,60.4491578 70.4473356,59.7908015 C71.548581,57.7624491 72.6673819,55.7433945 73.7649699,53.7457963 M52.3709653,65.1563516 C52.6474653,66.7620114 53.0004051,68.6730684 53.2962894,70.5919928 C53.4396597,71.5199854 53.5175625,72.4626401 53.5475532,73.4010034 C53.5742523,74.2353028 53.2395995,74.7298746 52.2513681,74.8993808 C48.9845718,75.4604677 45.7371597,76.1313403 42.4857245,76.7753922 C41.0765255,77.0546841 40.7641829,76.8605029 40.2839653,75.5362806 C39.4753125,73.3062373 38.6286227,71.0890678 37.7585255,68.8815538 C37.6700162,68.6562608 37.331706,68.425246 37.074956,68.378757 C35.0944699,68.0215066 33.1088634,67.6849975 31.1159421,67.4039177 C30.7333773,67.3499189 30.1844005,67.4375328 29.926919,67.6789182 C27.9888588,69.4941363 26.0983449,71.3583466 24.2060023,73.2196961 C23.3274931,74.0843922 23.032706,73.977825 22.0393542,73.2972971 C19.8262569,71.7803241 17.5151412,70.3995997 15.2347477,68.978108 C14.5102153,68.5260915 13.661331,68.2178334 13.0538356,67.6538856 C12.7140625,67.3381178 12.5363125,66.5767704 12.6617616,66.1136681 C13.0077523,64.834862 13.5157662,63.5925319 14.028169,62.3637909 C14.5665394,61.0724685 15.2098773,59.8237015 15.7453218,58.5320215 C15.8455347,58.2909937 15.7628773,57.8128718 15.5767153,57.649445 C13.9586782,56.2293837 12.8223218,54.5060709 11.9719745,52.5660476 C11.855669,52.3010601 11.4036134,52.0164042 11.105169,52.0146161 C9.3466875,52.0042455 7.58820602,52.0843497 5.8293588,52.1136736 C4.83710417,52.1301235 3.83972917,52.1580169 2.85478935,52.0693302 C2.60242824,52.0460856 2.24400231,51.6312604 2.18109491,51.3448164 C1.5077662,48.2729639 0.904293981,45.1868071 0.237548611,42.1142394 C-0.180858796,40.1874476 -0.225479167,40.1692096 1.62297454,39.4114383 C3.76255787,38.5349412 5.91091898,37.6756092 8.0826875,36.8813619 C8.65214583,36.6735917 8.77905787,36.3900086 8.74358102,35.8832781 C8.61301157,34.0365905 8.93925231,32.2553452 9.64586343,30.5491975 C9.91285417,29.9033575 10.3082199,29.3082979 10.6421412,28.6957154 C8.51206713,26.8175583 6.30884491,24.898634 4.13744213,22.9468096 C3.51458565,22.3871532 3.3920625,21.5893298 3.71940046,20.8751866 C4.58401157,18.9898774 5.49397454,17.1210181 6.4811088,15.2950718 C6.99021991,14.3538476 7.71182639,13.5241971 8.32005324,12.6326805 C8.80978009,11.9131732 9.4337338,11.636027 10.2789606,11.9932774 C12.7363727,13.031771 15.1882986,14.083496 17.6515625,15.1084005 C18.4788681,15.4524193 19.2176644,15.6026147 20.1075116,14.9506953 C21.6081458,13.8506932 23.2890903,12.9895732 24.8599468,11.977185 C25.1159653,11.8123278 25.3313866,11.3853439 25.3339468,11.077801 C25.3525995,8.70650252 25.3065162,6.33484645 25.2962755,3.96319037 C25.2889606,2.31819369 25.4246505,2.34823276 27.0682894,2.07537787 C29.6138449,1.65232764 32.1301412,1.05190385 34.6464375,0.473651761 C37.4103403,-0.161817608 36.9820579,-0.415719269 38.2658079,2.14117774 C39.3473032,4.29433535 40.3037153,6.5075711 41.3738727,8.8220099 C43.6429282,8.34710651 45.7850718,9.16960485 47.9817106,9.87409256 C49.6520486,8.12682 51.3435995,6.39492458 52.9901644,4.62333468 C54.5646782,2.92970332 55.0917106,2.82957309 57.1991088,3.86270252 C59.334669,4.90977867 61.4976597,5.90285601 63.6368773,6.94242239 C64.557081,7.38978997 65.4520486,7.88686505 66.3495764,8.37821841 C67.0481412,8.76050133 67.2024838,9.37093814 66.9135486,10.0503933 C65.6279699,13.0739687 64.3164236,16.0864583 63.0765625,18.9591231 C63.9002106,19.884255 64.7823773,20.6459599 65.3591505,21.5871841 C65.9234884,22.5087399 66.1762153,23.6126757 66.5880394,24.6958702 C69.1237199,24.8832568 71.8221551,25.1232118 74.5264421,25.2619637 C75.5175995,25.3123864 76.2384745,25.6127771 76.4908356,26.5582926 C77.2680347,29.4692215 78.0452338,32.3819384 78.7229514,35.3161118 C78.9716551,36.3946575 78.5331319,36.9528835 77.2998542,37.2843861 C75.9268634,37.6530799 74.5085208,37.8572741 73.1179745,38.1676778 C72.2456829,38.3625742 71.390581,38.6300649 70.523044,38.8474906 C69.9978403,38.9790903 69.7538912,39.2515876 69.7846134,39.8144625 C69.9170116,42.2501304 69.3003727,44.5656421 68.6036366,46.875432 C68.5235394,47.1407771 68.8106458,47.6403554 69.0765394,47.8567082 C70.9323079,49.3715356 72.823919,50.8445229 74.7118727,52.3210862 C75.7535023,53.1357171 75.7677662,53.4986892 75.1525903,54.6169294 C73.7397338,57.1849122 72.3740579,59.7790005 71.0409329,62.3877506 C70.2085069,64.016655 68.9723032,64.432553 67.2467384,63.7910043 C64.7677477,62.8698062 62.2397477,62.0719828 59.7168681,61.2705833 C59.3920903,61.1672346 58.9363773,61.2798811 58.602456,61.4261428 C58.1229699,61.6357011 57.7041968,61.9757862 57.2517755,62.2464955 C55.7134699,63.1680512 54.1715069,64.0835276 52.3709653,65.1563516" id="Fill-3" fill="#02374E"/>
                </g>
                <g id="Group-8" transform="translate(63.000000, 0.000000)">
                    <mask  fill="white">
                        <use xmlns:xlink="http://www.w3.org/1999/xlink" xlink:href="#path-44"/>
                    </mask>
                    <g id="Clip-7"/>
                    <path d="M7.07035429,48.286584 C8.8832,50.152464 10.6082743,51.860304 12.2422857,53.648784 C12.7791543,54.235944 13.1474286,54.203184 13.7270857,53.807904 C15.1712914,52.823304 16.6740114,51.918984 18.0922514,50.899824 C18.7563886,50.422464 19.2007314,50.539824 19.8652343,50.906664 C21.1243886,51.602544 22.44096,52.236144 23.8036114,52.693704 C24.4604343,52.914384 24.8202971,53.140104 24.9281829,53.790264 C24.9921829,54.174744 25.1377371,54.547344 25.1951543,54.932184 C25.4431086,56.612304 25.6782629,58.294224 25.9061029,59.977224 C25.9960686,60.640344 26.3325257,60.942024 27.0357943,60.894144 C27.9903086,60.828624 28.9521371,60.749424 29.9048229,60.796944 C31.5490743,60.879024 33.1882057,61.053264 34.9889829,61.202304 C35.5565714,59.154264 36.1610971,57.155904 36.6467657,55.130184 C36.8526629,54.273384 37.2937143,53.875584 38.1180343,53.641584 C39.4821486,53.254224 40.8945371,52.908264 42.13248,52.259544 C43.03872,51.785064 43.5858286,51.817464 44.3278629,52.430904 C45.7918171,53.640864 47.3212343,54.773784 48.7903086,55.912824 C50.5047771,54.473544 52.15744,53.064504 53.83424,51.684264 C54.9456457,50.769504 55.2210286,51.016824 54.0938971,49.598784 C53.0717257,48.312504 52.0042057,47.055384 51.0804114,45.703584 C50.7841829,45.270144 50.6013257,44.270064 50.8470857,44.050824 C52.2938514,42.760224 52.8032914,40.962744 53.7515886,39.408624 C54.0891429,38.854944 54.7445029,38.295144 55.3610971,38.136384 C57.3458286,37.624104 59.3748114,37.270224 61.3983086,36.915624 C62.04672,36.801864 62.3378286,36.558144 62.3038171,35.900424 C62.1995886,33.877944 62.1048686,31.854384 62.0412343,29.830824 C62.02624,29.370744 61.9348114,29.139264 61.4180571,29.034504 C59.6333714,28.672344 57.8786743,28.108944 56.0789943,27.896904 C54.9500343,27.764064 54.68416,27.154224 54.4036571,26.328744 C53.7746286,24.479784 53.1364571,22.633704 52.4650057,20.799144 C52.2108343,20.104344 52.3037257,19.502424 52.8021943,18.990504 C53.6045714,18.166104 54.4329143,17.364744 55.2744229,16.578504 C55.8208,16.067304 56.4096,15.600024 57.1271314,14.986944 C55.5644343,13.410864 54.1019429,11.908584 52.5948343,10.450584 C52.39296,10.254744 51.9094857,10.135944 51.6527543,10.232064 C49.6402286,10.984104 47.63392,11.757384 45.6645486,12.611664 C44.9155657,12.936744 44.4383086,12.813984 43.9358171,12.240504 C43.1114971,11.299824 42.0823771,10.566504 40.8276114,10.448064 C39.9817143,10.368144 39.7429029,9.955944 39.6375771,9.313344 C39.29856,7.251624 38.9101714,5.192784 38.6984229,3.117384 C38.6088229,2.236824 38.3349029,2.019384 37.49888,2.070864 C35.0804114,2.219184 32.6568229,2.285064 30.2394514,2.441304 C29.9348114,2.461104 29.4765714,2.774664 29.3906286,3.045024 C28.77952,4.973184 28.1450057,6.904944 27.7354057,8.879544 C27.55072,9.768744 27.17696,10.036944 26.3837257,10.214784 C24.78336,10.573344 23.0882743,10.665864 21.7029486,11.722104 C21.5464229,11.841264 21.0750171,11.724984 20.8548571,11.571984 C19.2036571,10.421424 17.56672,9.250344 15.9528229,8.049744 C15.4561829,7.680024 15.0985143,7.584624 14.6044343,8.067384 C13.568,9.078624 12.48,10.038744 11.4055314,11.011824 C9.55465143,12.689064 9.55904,12.683304 10.8514743,14.796144 C11.60448,16.027704 12.3863771,17.247384 13.0402743,18.529344 C13.2330057,18.905904 13.1968,19.567584 12.9832229,19.943064 C12.0956343,21.501144 11.0610286,22.977864 10.1668571,24.532704 C9.87209143,25.044624 9.60512,25.296984 8.98962286,25.348104 C6.87798857,25.524504 4.76964571,25.752384 2.66752,26.019144 C2.35885714,26.058744 1.85746286,26.400024 1.84173714,26.628264 C1.69033143,28.808424 1.62267429,30.994344 1.53526857,33.178824 C1.51222857,33.759864 1.83661714,33.893784 2.38957714,33.992784 C4.57033143,34.384104 6.73462857,34.863984 8.90770286,35.298144 C9.69910857,35.456184 10.1204114,36.035064 10.0417829,36.698904 C9.81174857,38.645784 10.5146514,40.277304 11.5086629,41.867784 C11.8853486,42.471144 11.8385371,43.004304 11.2548571,43.606944 C9.79456,45.115344 8.448,46.731024 7.07035429,48.286584 M21.3705143,10.094184 C22.9716114,9.561024 24.3477943,9.026784 25.76896,8.661384 C26.4693029,8.481024 26.6894629,8.184024 26.8244114,7.522344 C27.18976,5.730264 27.6629943,3.959424 28.0949029,2.180664 C28.2938514,1.359864 28.79232,0.850104 29.6711314,0.787464 C32.25344,0.602064 34.8353829,0.401904 37.4202514,0.259704 C39.4258286,0.149184 39.6887771,0.469944 39.8979657,2.420424 C40.11008,4.400424 40.4315429,6.369624 40.7541029,8.335944 C40.7990857,8.610264 41.0942171,9.028944 41.32096,9.061344 C43.0149486,9.303264 44.2152229,10.271664 45.2315429,11.504664 C47.2298057,10.549584 49.1713829,9.566424 51.1689143,8.709264 C51.6136229,8.518464 52.4591543,8.561304 52.77184,8.855784 C54.5879771,10.564344 56.3587657,12.328704 58.0224,14.181264 C58.8752457,15.130584 58.69312,15.881904 57.6778971,16.834824 C56.57344,17.871264 55.4378971,18.875664 54.2994286,19.875744 C53.7684114,20.341584 53.78304,20.730384 54.0942629,21.388824 C54.7477943,22.773024 55.2480914,24.234264 55.7099886,25.695144 C55.8785829,26.228304 56.1086171,26.430984 56.6352457,26.504064 C58.4056686,26.751024 60.17024,27.038304 61.9381029,27.304344 C63.0568229,27.472824 63.4686171,27.927864 63.5139657,29.055744 C63.6127086,31.501224 63.7092571,33.946344 63.8171429,36.391104 C63.8778514,37.764864 63.2111543,38.490264 61.8781257,38.708424 C59.8173257,39.045024 57.7642057,39.439944 55.7301029,39.904704 C55.33184,39.995784 54.93248,40.458744 54.7090286,40.847904 C53.8986057,42.256584 53.1631543,43.706664 52.3399314,45.253944 C53.3705143,46.556784 54.5506743,48.043224 55.7216914,49.536864 C55.9030857,49.767984 56.0570514,50.023944 56.1952914,50.283504 C56.6443886,51.125904 56.6326857,51.767424 55.7458286,52.465104 C53.8294857,53.971704 52.0290743,55.621584 50.1994057,57.232944 C49.2529371,58.066344 48.9768229,58.063824 48.01536,57.253824 C46.6055314,56.065824 45.1701029,54.906624 43.7200457,53.766504 C43.5401143,53.624664 43.1689143,53.576064 42.94656,53.652744 C41.4829714,54.157824 40.0219429,54.676224 38.5927314,55.267344 C38.2405486,55.413144 37.8569143,55.798344 37.7486629,56.151144 C37.16608,58.053744 36.6405486,59.974704 36.1482971,61.902504 C35.9292343,62.760384 35.5744914,62.987184 34.6071771,62.882064 C32.4801829,62.651664 30.3268571,62.661024 28.1837714,62.574264 C28.0853943,62.570664 27.9855543,62.591544 27.88608,62.598384 C25.8132114,62.737344 25.344,62.450784 24.9647543,60.451704 C24.6549943,58.816944 24.48384,57.154464 24.3141486,55.497744 C24.2512457,54.884304 24.0069486,54.667944 23.41632,54.439704 C22.1023086,53.931024 20.8340114,53.286264 19.6048457,52.596504 C19.1338057,52.331904 18.8280686,52.272504 18.3683657,52.548264 C16.6966857,53.549064 14.9847771,54.485064 13.3288229,55.509984 C12.6983314,55.900584 12.3834514,55.763424 11.9303314,55.246104 C10.1562514,53.220744 8.32914286,51.239664 6.51483429,49.248144 C5.98601143,48.667464 5.86569143,48.101904 6.39451429,47.437704 C7.60100571,45.921384 8.79872,44.396424 9.94669714,42.837624 C10.1408914,42.574104 10.1972114,42.086664 10.1028571,41.763744 C9.65668571,40.238424 9.09165714,38.745864 8.66852571,37.214784 C8.5376,36.742104 8.41398857,36.495504 7.91076571,36.393264 C6.15716571,36.037224 4.42075429,35.592984 2.66057143,35.274024 C1.64498286,35.090424 1.07885714,34.561584 0.790308571,33.627384 C0.115931429,31.445784 0.326582857,29.220624 0.46336,27.006624 C0.60672,24.688584 0.638171429,24.660144 2.97910857,24.368904 C4.65078857,24.161184 6.33746286,24.073344 8.01133714,23.882544 C8.70619429,23.803344 9.25878857,23.558184 9.58134857,22.773384 C10.0999314,21.511944 10.8511086,20.345184 11.4410057,19.108944 C11.57376,18.829944 11.5701029,18.363744 11.42016,18.098424 C10.5969371,16.642944 9.69508571,15.230664 8.84626286,13.788504 C7.97110857,12.300984 8.06509714,12.188664 9.35899429,11.084904 C11.0127543,9.674064 12.6061714,8.190144 14.1677714,6.679944 C14.8216686,6.047424 15.3442743,5.888664 16.1338514,6.461424 C17.9221943,7.758504 19.7624686,8.985024 21.3705143,10.094184" id="Fill-6" fill="#02374E"/>
                </g>
                <path d="M38.9435885,83.9452878 C41.9994561,83.9435109 45.8629954,82.5887927 48.6692257,80.4454808 C52.6251016,77.424374 54.3152632,73.3936256 53.6327752,68.5991601 C53.3663494,66.7287819 52.4411583,64.9213064 51.6488153,63.1561215 C51.0962554,61.9261426 50.4349354,60.6602701 49.5174087,59.6829682 C46.4334387,56.3974568 42.6403379,54.4361007 37.9537983,54.4197086 C37.6578102,54.418687 37.3523329,54.4364561 37.0665639,54.5061111 C34.7336956,55.0765 32.5800261,55.9997838 30.586942,57.3488158 C25.8690152,60.5412169 23.2631518,66.5685044 24.4821411,72.0158076 C26.1927409,79.6600854 31.4139569,83.4545045 38.9435885,83.9452878 M37.2953981,53 C40.6209762,53.3912761 43.598011,54.0128402 46.2148235,55.772339 C46.9772393,56.2848006 47.8049842,56.7080612 48.5465968,57.2457549 C49.8936896,58.2216353 50.9181516,59.4647633 51.7075749,60.9211209 C53.1178069,63.5221655 54.5703751,66.1392023 54.8919109,69.0931418 C55.4649089,74.3591999 53.778032,78.8533671 49.3940499,82.1541599 C46.5699363,84.2800581 43.3793959,85.6777776 39.7651289,85.9613728 C34.4508463,86.3778811 27.2912912,83.404751 24.4029433,78.0740133 C21.4416021,72.6082302 21.1058326,67.1602163 24.020458,61.6798625 C26.8310679,56.3956799 31.5431552,53.756254 37.2953981,53" id="Fill-9" fill="#02374E"/>
                <path d="M95.3286012,43.6196526 C100.573376,43.4216661 103.894017,41.3405839 106.385321,36.2363155 C108.156403,32.6084178 108.04912,28.8715164 105.423803,25.817557 C102.913459,22.8974423 99.8370421,20.6595281 95.6409296,20.4452282 C92.2671966,20.2728243 89.3716593,21.036963 87.1809664,23.6311786 C84.8423477,26.401135 83.5824155,29.5629859 84.0016605,33.3762641 C84.6643973,39.3992786 90.5217456,43.8128191 95.3286012,43.6196526 M95.2377953,19.0070458 C99.8747559,18.8439109 103.440353,21.5334121 106.214328,25.0185667 C109.674839,29.3664825 109.744408,34.223824 107.343177,38.7178197 C104.31436,44.3871281 98.9809766,46.825624 92.9786317,45.7533829 C89.1091277,45.0615426 86.0938583,42.692379 84.1832724,39.328834 C81.6568172,34.881925 81.1339509,30.1814155 83.619763,25.368936 C85.9005296,20.9542832 89.485899,18.9162093 95.2377953,19.0070458" id="Fill-11" fill="#02374E"/>
            </g>
    </svg>