<svg xmlns="http://www.w3.org/2000/svg" xmlns:xlink="http://www.w3.org/1999/xlink" width="200px" height="130px" viewBox="" version="1.1">
    <title>Franchise - 1</title>
<g xmlns="http://www.w3.org/2000/svg" id="Group-15" transform="translate(78, 13)" style="&#10;    transform: translate(77, 13);&#10;">
                <path d="M37.0166588,19.1110719 C39.7252471,19.0957594 41.4488941,18.5046969 42.4720706,17.3838219 C44.0901882,15.6091031 44.8181882,13.4806656 44.7585412,11.0980406 C44.7111294,9.06760312 43.9938353,7.28522812 42.5760706,5.81522812 C42.0912471,5.31450938 41.6431294,4.69894687 41.0481882,4.40647812 C39.5294824,3.66382187 37.8563059,3.45097812 36.2106588,3.79550937 C30.6588941,4.95925937 28.2057176,11.2955719 31.4725412,15.9184156 C32.9912471,18.0667594 35.1431294,18.9793844 37.0166588,19.1110719 M37.2246588,2.85379062 C37.8976,2.95944687 38.6668941,3.04366562 39.4178353,3.20904063 C40.6933647,3.48772812 41.7150118,4.23191563 42.6540706,5.10472813 C44.6285412,6.93916563 45.6593647,9.20847812 45.5844235,11.9050094 C45.5232471,14.0441656 44.8900706,16.0332594 43.5350118,17.7329469 C42.1248941,19.4984781 40.1963059,20.2059156 38.0123059,20.2472594 C34.8785412,20.3100406 32.5125412,18.9579469 30.4983059,16.5171344 C27.2850118,12.6185719 29.1998353,4.29775937 35.9720706,2.97782187 C36.3483059,2.90432187 36.7398353,2.89972812 37.2246588,2.85379062" id="Fill-1" fill="#DBC0BD"/>
                <path d="M44.4023412,44.3647531 C44.4023412,45.3570031 44.4176353,46.0751594 44.3885765,46.7917844 C44.3824588,46.9464406 44.2463412,47.1791906 44.1194,47.2205344 C43.9848118,47.2649406 43.7263412,47.1745969 43.6345765,47.0551594 C43.5183412,46.9035656 43.4831647,46.6662219 43.4709294,46.4625656 C43.3302235,44.4290656 43.2170471,42.3940344 43.0610471,40.3635969 C42.9968118,39.5428469 42.8469294,38.7282219 42.7306941,37.9135969 C42.7016353,37.7038156 42.6098706,37.4986281 42.6205765,37.2949719 C42.6328118,37.0882531 42.7337529,36.8876594 42.7949294,36.6840031 C42.9509294,36.8264094 43.1910471,36.9412531 43.2476353,37.1173469 C43.4892824,37.8661281 43.7615176,38.6195031 43.8670471,39.3943156 C44.1041059,41.1338156 44.2478706,42.8840344 44.4023412,44.3647531" id="Fill-3" fill="#DBC0BD"/>
                <g id="Group-7" transform="translate(47.411765, 26.689075)">
                    <mask id="mask-52" fill="white">
                        <use xmlns:xlink="http://www.w3.org/1999/xlink" xlink:href="#path-51"/>
                    </mask>
                    <g id="Clip-6"/>
                    <path d="M3.91330588,12.13975 C3.5906,8.48925 3.24954118,4.844875 1.81189412,1.41640625 C1.75377647,1.2770625 1.73389412,1.157625 1.75071765,1.0443125 C1.67118824,0.9585625 1.60083529,0.8666875 1.54271765,0.765625 C1.37142353,0.80390625 1.21236471,0.8605625 1.08236471,0.95703125 C1.13436471,1.13159375 1.16342353,1.3138125 1.16342353,1.49603125 C1.22918824,1.4546875 1.29648235,1.41946875 1.36071765,1.37965625 C1.65742353,2.6735625 2.06577647,3.8924375 2.19424706,5.14040625 C2.45577647,7.67615625 2.56589412,10.2272188 2.73565882,12.770625 C2.84577647,14.387625 2.90542353,16.0076875 3.08436471,17.6170312 C3.15012941,18.1989063 3.46671765,18.767 3.73895294,19.306 C3.82307059,19.4744375 4.13965882,19.5280312 4.34918824,19.63675 C4.41036471,19.397875 4.54189412,19.1544063 4.52201176,18.9247188 C4.33236471,16.6615312 4.11365882,14.4014063 3.91330588,12.13975" id="Fill-5" fill="#DBC0BD" mask="url(#mask-52)"/>
                </g>
                <path d="M48.7815059,28.1191094 C48.8595059,28.0272344 48.9558588,27.9522031 49.0598588,27.8817656 C49.0950353,27.8373594 49.1332706,27.7990781 49.1745647,27.7607969 C49.1898588,27.6306406 49.2388,27.5050781 49.3489176,27.3703281 C50.1182118,26.4224844 50.3736235,25.3138594 50.0769176,24.1424531 C49.6486824,22.4626719 48.3043294,21.6863281 46.3864471,21.8011719 C44.1611529,21.9343906 41.9297412,22.0492344 39.7013882,22.0645469 C36.4498588,22.0875156 33.1937412,22.1166094 29.9498588,21.9527656 C26.4444471,21.7736094 22.9466824,21.3892656 19.4489176,21.0722969 C16.5292706,20.8089219 13.6142118,20.7537969 10.7312706,21.3509844 C6.67374118,22.1901094 3.65009412,24.3522344 2.18491765,28.3702344 C1.94021176,29.0439844 1.82703529,29.7636719 1.63891765,30.4588594 C0.785505882,33.6162969 0.416917647,36.8502969 0.115623529,40.0904219 C-0.0128470588,41.4716094 0.0315058824,42.8696406 0.00550588235,44.2584844 C-0.00214117647,44.8036094 -0.00367058824,45.3472031 0.0238588235,45.8892656 C0.0315058824,46.0255469 0.167623529,46.1557031 0.244094118,46.2873906 C0.389388235,46.1281406 0.409270588,46.0286094 0.413858824,45.9290781 C0.499505882,44.2079531 0.4888,42.4745781 0.684564706,40.7657031 C1.06538824,37.4474844 1.47985882,34.1338594 2.3088,30.8830156 C2.73550588,29.2154844 3.14385882,27.5525469 4.20527059,26.1728906 C5.85397647,24.0245469 8.04103529,22.7092031 10.6991529,22.1533594 C14.2290353,21.4137656 17.7757412,21.5883281 21.3010353,22.0446406 C25.2668,22.5576094 29.2417412,22.8592656 33.2335059,22.9235781 C36.1883294,22.9725781 39.1416235,22.9327656 42.0979765,22.9251094 C42.4466824,22.9235781 42.7984471,22.8822344 43.1486824,22.8577344 C44.3936235,22.7765781 45.6385647,22.6295781 46.8835059,22.6249844 C49.2082118,22.6157969 49.8429176,24.7335156 48.9803294,26.3428594 C48.5658588,27.1161406 47.9280941,27.6735156 47.1159765,27.9858906 C46.2809176,28.3059219 45.4336235,28.6091094 44.5679765,28.8311406 C40.3192706,29.9183281 35.9589176,30.1189219 31.6092706,30.4251719 C30.2511529,30.5201094 28.9068,30.8340156 27.5593882,31.0759531 C27.0837412,31.1586406 26.7472706,31.4189531 26.6371529,31.9548906 C26.4108,33.0558594 26.1324471,34.1445781 25.8846824,35.2394219 C25.1368,38.5499844 25.0588,41.9049531 25.2851529,45.2706406 C25.3325647,45.9780781 25.5772706,46.6793906 25.7883294,47.3653906 C25.9015059,47.7328906 26.2012706,47.9457344 26.6203294,47.8002656 C26.9552706,47.6808281 27.0608,47.2582031 26.8971529,46.8462969 C26.7824471,46.5553594 26.6386824,46.2613594 26.6004471,45.9551094 C26.4689176,44.9291719 26.3740941,43.8971094 26.2700941,42.8650469 C25.9168,39.2865156 26.3098588,35.7692344 27.1770353,32.2978906 C27.2244471,32.1049531 27.4492706,31.8477031 27.6266824,31.8155469 C28.8028,31.6072969 29.9819765,31.3990469 31.1703294,31.2918594 C34.3392706,31.0101094 37.5235059,30.8860781 40.6771529,30.4971406 C43.4606824,30.1541406 46.2518588,29.6825156 48.7723294,28.0869531 C48.7753882,28.0976719 48.7784471,28.1083906 48.7815059,28.1191094" id="Fill-8" fill="#A4C1CF"/>
                <path d="M16.8535059,16.2578937 C19.5590353,16.2425812 21.2826824,15.6499875 22.3073882,14.532175 C23.8933882,12.8064562 24.6183294,10.7254875 24.6045647,8.40564375 C24.5923294,6.3216125 23.8796235,4.4779875 22.4159765,2.96358125 C21.9311529,2.46439375 21.4845647,1.84576875 20.8896235,1.5533 C19.3709176,0.81064375 17.6977412,0.5978 16.0536235,0.9408 C10.5018588,2.09995625 8.04256471,8.4408625 11.3078588,13.0606437 C12.8265647,15.2105187 14.9769176,16.1216125 16.8535059,16.2578937 M17.0630353,0.0006125 C17.7344471,0.10626875 18.5037412,0.1904875 19.2562118,0.35433125 C20.5317412,0.63455 21.5533882,1.3787375 22.4924471,2.25155 C24.4669176,4.0859875 25.4977412,6.35376875 25.4212706,9.05183125 C25.3600941,11.1909875 24.7284471,13.17855 23.3733882,14.8782375 C21.9617412,16.6437688 20.0346824,17.3512063 17.8506824,17.3940813 C14.7153882,17.4553313 12.3509176,16.1032375 10.3366824,13.6639563 C7.12185882,9.76539375 9.03668235,1.44458125 15.8104471,0.1231125 C16.1866824,0.0496125 16.5782118,0.04501875 17.0630353,0.0006125" id="Fill-10" fill="#A4C1CF"/>
                <g id="Group-14" transform="translate(6.117647, 34.345325)">
                    <mask id="mask-54" fill="white">
                        <use xmlns:xlink="http://www.w3.org/1999/xlink" xlink:href="#path-53"/>
                    </mask>
                    <g id="Clip-13"/>
                    <path d="M2.50334118,0.38924375 C2.56604706,1.28655625 2.66545882,2.15324375 2.68075294,3.02299375 C2.72816471,6.06405625 2.75110588,9.10511875 2.77710588,12.1477125 C2.78016471,12.4110875 2.7404,12.6729312 2.72357647,12.934775 C2.68381176,13.5059312 2.38404706,13.7876812 1.72945882,13.781654 C1.68969412,13.5564625 1.60863529,13.3237125 1.61322353,13.094025 C1.69734118,9.65024375 1.79216471,6.2064625 1.88545882,2.76268125 C1.89922353,2.2007125 1.89310588,1.63568125 1.93898824,1.076775 C1.96192941,0.7858375 1.98487059,0.4305875 2.50334118,0.38924375" id="Fill-12" fill="#A4C1CF" mask="url(#mask-54)"/>
                </g>
            </g>
            <g xmlns="http://www.w3.org/2000/svg" id="Group-38" transform="translate(00, 56.000000)">
                <polygon id="Fill-1" fill="#A5C2D0" points="88 51 98.000806 69 108 51"/>
                <g id="Group-37">
                    <g id="Group-4" transform="translate(0.000000, 1.666667)">
                        <mask id="mask-56" fill="white">
                            <use xmlns:xlink="http://www.w3.org/1999/xlink" xlink:href="#path-55"/>
                        </mask>
                        <g id="Clip-3"/>
                        <path d="M0.238494118,9.07733333 C0.694729412,8.05733333 1.34531765,7.16233333 1.99590588,6.26566667 C2.81284706,5.15733333 5.61614118,1.849 6.23378824,1.26566667 C7.39825882,0.099 8.20531765,-0.109333333 9.3352,0.480666667 C11.3215529,1.39066667 13.4742588,2.41233333 13.0130824,3.684 C12.6029647,5.15733333 10.5507294,4.074 9.04202353,3.05733333 C8.50508235,2.739 8.13778824,2.679 7.72108235,3.21066667 C7.3752,3.66733333 7.02437647,4.049 6.69167059,4.47566667 C6.41167059,4.78233333 6.45449412,5.16233333 6.84484706,5.414 C8.06531765,6.11733333 8.97943529,6.39233333 8.62861176,7.49566667 C8.05708235,8.93233333 6.72461176,7.999 5.17472941,7.469 C4.56696471,7.22733333 4.29355294,7.28233333 3.90484706,7.754 C3.65284706,8.07233333 3.40578824,8.46733333 3.17190588,8.83066667 C2.92814118,9.29733333 3.04508235,9.674 3.57708235,9.919 C5.44484706,10.7756667 6.89590588,10.5706667 6.54508235,12.074 C6.44625882,12.534 6.00814118,12.8756667 5.45472941,12.9123333 C4.87167059,12.934 1.46225882,11.7706667 1.07849412,11.5956667 C0.0210823529,11.0023333 -0.258917647,10.1873333 0.238494118,9.07733333" id="Fill-2" fill="#F3EEE7" mask="url(#mask-56)"/>
                    </g>
                    <path d="M17.9491529,19.6941667 C18.6853882,18.5591667 19.4413882,17.4658333 21.2795059,14.8391667 C21.7851529,14.0758333 22.1310353,13.5708333 21.8988,13.2441667 C21.6682118,12.9191667 21.1493882,13.2225 20.6602118,13.5391667 L18.7578588,14.9575 C17.7086824,15.7025 17.1404471,15.8508333 16.5376235,15.6025 C15.5444471,15.1825 15.7173882,13.9875 15.9199765,12.6991667 C15.9990353,12.1691667 16.1060941,11.8591667 15.7388,11.7291667 C15.4308,11.6191667 15.1606824,11.9075 14.8543294,12.2891667 C13.8282118,13.5641667 12.8745647,14.8308333 11.9192706,16.2008333 C11.2868,17.2325 10.5917412,17.5458333 9.9708,17.1525 C9.44044706,16.7908333 9.23456471,16.0891667 9.55244706,15.4691667 C10.2310353,14.0008333 14.2943294,9.02083333 16.0517412,7.13083333 C16.7418588,6.3275 17.5060941,6.0075 18.1204471,6.22416667 C19.4413882,6.69083333 19.1531529,8.8225 18.9044471,10.4408333 C18.8369176,10.8375 18.8665647,11.0541667 19.1498588,11.2258333 C19.4479765,11.3658333 19.6538588,11.2641667 20.2369176,10.8775 C21.6797412,9.99416667 24.1865647,8.7175 25.2308,9.0875 C25.8748,9.31416667 26.2256235,9.9975 26.1317412,10.8691667 C26.0016235,12.0441667 24.9623294,13.5591667 24.2260941,14.6941667 C22.5625647,17.3141667 20.2402118,20.7475 19.6868,21.2508333 C19.1976235,21.6708333 18.5700941,21.6908333 18.0924471,21.2775 C17.5917412,20.9275 17.5406824,20.2825 17.9491529,19.6941667" id="Fill-5" fill="#F3EEE7"/>
                    <path d="M32.8772706,14.4191667 C32.8179765,13.7558333 32.3123294,13.7541667 31.6765647,14.1241667 C30.0509176,15.2858333 28.6739765,16.7841667 28.1156235,18.8825 C27.8800941,19.7725 27.9146824,20.3958333 28.4005647,20.5975 C29.5979765,21.1625 32.9250353,16.1358333 32.8772706,14.4191667 M25.7438588,21.3375 C24.7358588,18.1641667 27.5671529,13.8558333 30.6982118,11.8458333 C31.2648,11.4891667 31.8692706,11.2458333 32.4391529,11.1275 C33.3417412,11.0325 33.8095059,11.2975 34.1751529,12.0791667 C34.3431529,12.4641667 34.5193882,12.6841667 34.7664471,12.8875 C35.5965647,13.6941667 35.4071529,15.5525 34.7829176,16.8825 C33.5673882,19.4141667 31.8165647,21.9391667 29.5815059,22.9975 C27.8768,23.8291667 26.3417412,23.1375 25.7438588,21.3375" id="Fill-7" fill="#F3EEE7"/>
                    <path d="M38.1175529,23.9438333 C39.3561412,21.9871667 42.1462588,16.7271667 42.3686118,15.6638333 C42.4295529,15.3721667 42.3554353,15.0888333 42.0046118,15.0138333 C40.2867294,14.6471667 38.4041412,14.5821667 37.6399059,14.4188333 C37.2577882,14.3371667 36.9926118,14.0121667 36.9481412,13.4305 C36.8575529,12.7371667 37.5872,12.1188333 38.4403765,12.1688333 C40.7627294,12.1905 42.4328471,12.4805 48.6356706,13.8371667 C49.8775529,14.1021667 50.4013176,14.6171667 50.2399059,15.3905 C50.1279059,15.9371667 49.6074353,16.3655 48.9881412,16.3005 C48.2107294,16.2021667 47.1516706,16.0105 46.5159059,15.8738333 C45.2740235,15.6105 45.1570824,15.6855 44.5921412,16.8105 C43.1690824,19.8055 41.5154353,23.1205 40.1269647,25.3138333 C39.5504941,26.1671667 38.7302588,26.4305 38.1356706,25.9321667 C37.5394353,25.4371667 37.5344941,24.8288333 38.1175529,23.9438333" id="Fill-9" fill="#F3EEE7"/>
                    <path d="M52.8043765,16.2338333 C53.1963765,15.6671667 53.7959059,15.4355 54.2867294,15.6538333 C55.0312,15.9471667 55.1349647,16.7005 54.6276706,17.9488333 C53.7744941,20.1055 52.5984941,22.0071667 51.4966118,24.0538333 C50.2086118,26.4371667 49.5843765,28.0005 48.4363765,27.3705 C47.1170824,26.7755 48.1580235,25.0855 48.9222588,23.6805 C50.5264941,20.9855 52.4337882,16.8721667 52.8043765,16.2338333" id="Fill-11" fill="#F3EEE7"/>
                    <path d="M61.8213647,20.0066667 C61.6780706,19.3566667 61.1773647,19.42 60.5926588,19.8733333 C59.1300706,21.235 57.9557176,22.9016667 57.6691294,25.055 C57.5456,25.9683333 57.6625412,26.5816667 58.1698353,26.7183333 C59.4281882,27.1233333 62.0881882,21.705 61.8213647,20.0066667 M55.6284235,27.8 C54.2251294,24.785 56.4848941,20.1433333 59.3326588,17.7416667 C59.8498353,17.3133333 60.4180706,16.9916667 60.9681882,16.8016667 C61.8510118,16.5883333 62.3484235,16.79 62.8096,17.5183333 C63.0237176,17.88 63.2279529,18.0733333 63.5013647,18.2433333 C64.4270118,18.9333333 64.4731294,20.8016667 64.0251294,22.2016667 C63.1439529,24.8716667 61.7274824,27.6033333 59.6472471,28.945 C58.0611294,29.9916667 56.4519529,29.5066667 55.6284235,27.8" id="Fill-13" fill="#F3EEE7"/>
                    <path d="M64.9996941,28.7306667 C65.0408706,28.2723333 66.0109882,25.7806667 66.8476941,24.0723333 C68.3465176,20.7723333 69.6295765,17.3523333 70.9554588,17.4723333 C71.3804,17.4773333 71.7526353,17.709 72.0128706,18.0956667 C72.4147529,18.6956667 72.8331059,21.0106667 72.9945176,22.514 L73.1773412,23.7523333 C73.2959294,24.2573333 73.3733412,24.4973333 73.7307529,24.529 C74.1524,24.5673333 74.3698118,23.9256667 74.9726353,22.6573333 C75.7796941,20.9156667 76.6509882,19.1756667 77.3131059,18.7056667 C77.5535765,18.5623333 77.7907529,18.4856667 78.1135765,18.514 C78.5994588,18.5573333 79.2055765,19.0756667 79.1067529,19.8273333 C79.0869882,20.0573333 78.9667529,20.309 78.8119294,20.5923333 C77.3674588,22.909 76.9112235,23.9906667 75.3284,27.5156667 C75.0022824,28.2456667 74.6333412,29.1056667 74.1556941,30.084 C73.9168706,30.5606667 73.5018118,30.819 73.0488706,30.779 C72.5942824,30.7373333 72.1611059,30.4673333 71.8481647,29.944 C71.3375765,29.0706667 71.3655765,28.0156667 70.7034588,23.6606667 C70.5815765,23.2206667 70.0644,23.1406667 69.8354588,23.5173333 C68.9164,25.0523333 67.9578118,27.4106667 67.3632235,28.9756667 C67.0239294,29.8723333 66.4639294,30.284 65.7968706,30.0573333 C65.2912235,29.879 64.9453412,29.3523333 64.9996941,28.7306667" id="Fill-15" fill="#F3EEE7"/>
                    <path d="M85.1005647,25.9425 C85.4085647,24.3108333 85.4200941,24.0475 85.1351529,23.9341667 C84.4977412,23.6058333 82.9659765,25.6375 83.2624471,26.2475 C83.3777412,26.5491667 83.6346824,26.5958333 84.1880941,26.6225 C84.6426824,26.6458333 85.0116235,26.4325 85.1005647,25.9425 M84.3840941,29.9291667 C84.4384471,29.5025 84.1946824,29.1275 83.7746824,29.0741667 L81.7010353,28.8708333 C81.3419765,28.8525 81.1064471,29.0058333 80.8264471,29.3875 C80.1610353,30.3441667 79.3226824,31.5225 79.0509176,31.7391667 C78.6144471,32.0141667 78.0626824,31.9858333 77.6542118,31.6691667 C77.0563294,31.2441667 77.0596235,30.5175 77.7579765,29.5308333 L80.7144471,25.0641667 C81.9464471,23.1808333 84.9243294,19.5725 86.1283294,18.9075 C87.1989176,18.3358333 88.2168,18.8808333 88.3222118,20.0391667 C88.4193882,21.3941667 86.9650353,30.4541667 86.5433882,31.7508333 C86.3523294,32.3341667 85.8170353,32.6375 85.2356235,32.5091667 C84.1386824,32.2908333 84.3149176,31.3425 84.3840941,29.9291667" id="Fill-17" fill="#F3EEE7"/>
                    <path d="M89.8793412,30.5145 C89.7920471,29.7878333 90.9054588,26.8428333 92.0896941,23.6011667 C92.5936941,22.2245 93.1026353,20.8495 93.5769882,19.4411667 C93.9525176,18.2611667 94.4433412,17.8745 95.2224,18.0828333 C96.0327529,18.2911667 96.2485176,19.0195 95.8104,20.2628333 C94.9967529,22.6211667 94.1831059,24.9461667 93.6774588,26.3545 C93.1026353,27.9595 92.7995765,28.6461667 93.2525176,28.8828333 C93.4781647,29.0195 94.0002824,28.9595 95.1400471,28.7445 C96.1529882,28.5611667 96.9962824,28.6061667 97.1148706,29.5645 C97.2021647,30.1561667 96.8694588,30.7111667 96.3144,30.8695 C94.8106353,31.3411667 91.8113412,31.9245 91.2266353,31.8828333 C90.4459294,31.8395 89.9979294,31.3728333 89.8793412,30.5145" id="Fill-19" fill="#F3EEE7"/>
                    <path d="M107.990565,29.284 C108.456682,27.179 109.158329,21.2373333 109.364212,19.709 C109.502565,18.7123333 109.929153,18.1923333 110.545153,18.1556667 C111.390094,18.139 111.925388,18.9323333 111.754094,19.9323333 C111.625624,21.0923333 111.230329,23.8206667 111.268212,24.5106667 C111.287976,24.8373333 111.689859,25.0456667 111.969859,24.799 C112.340447,24.4473333 113.068447,23.514 113.539506,23.2223333 C114.325153,22.6806667 115.179976,22.8606667 115.687271,23.7223333 C116.151741,24.454 116.158329,26.2656667 116.780918,26.329 C117.339271,26.3956667 117.991506,24.7073333 119.014329,22.109 C120.213388,19.1373333 120.720682,17.1956667 122.119035,17.7073333 C122.621388,17.9406667 122.949153,18.549 122.784447,19.1173333 C122.552212,20.154 118.250094,30.3623333 117.802094,31.049 C117.083976,32.179 115.743271,32.094 115.186565,30.9056667 C114.776447,30.0073333 114.557388,29.0306667 114.338329,28.0206667 C114.076447,26.884 113.649859,26.8106667 112.887271,27.7123333 C110.551741,30.749 110.340918,31.0573333 110.156447,31.2656667 C109.695271,31.7223333 109.181388,31.8523333 108.647741,31.6523333 C107.947741,31.364 107.705624,30.554 107.990565,29.284" id="Fill-21" fill="#F3EEE7"/>
                    <path d="M124.570518,28.9276667 C124.456871,27.8143333 124.570518,26.7093333 124.685812,25.6043333 C124.837341,24.231 125.604871,19.9426667 125.846988,19.1226667 C126.268635,17.521 126.864871,16.9293333 128.131459,16.861 C130.300635,16.6293333 132.667459,16.4126667 132.904635,17.7443333 C133.286753,19.2276667 130.975929,19.341 129.164165,19.2343333 C128.541576,19.2343333 128.195694,19.371 128.103459,20.0426667 C128.030988,20.6126667 127.918988,21.121 127.843224,21.6593333 C127.755929,22.066 127.983224,22.3726667 128.4444,22.391 C129.849341,22.3726667 130.774988,22.1443333 131.022047,23.276 C131.246047,24.8076667 129.630282,24.6826667 128.029341,25.0176667 C127.385341,25.1193333 127.174518,25.306 127.074047,25.9126667 C127.0164,26.3176667 126.999929,26.7826667 126.980165,27.216 C127.003224,27.7426667 127.291459,28.0093333 127.874518,27.9476667 C129.913576,27.731 131.061576,26.8143333 131.509576,28.291 C131.654518,28.7393333 131.445341,29.2576667 130.987459,29.5726667 C130.496635,29.8876667 126.973576,30.6276667 126.551929,30.671 C125.344635,30.6993333 124.695694,30.141 124.570518,28.9276667" id="Fill-23" fill="#F3EEE7"/>
                    <path d="M134.4336,28.384 C134.239247,27.679 134.896424,24.5956667 135.578306,21.2073333 C135.874776,19.7706667 136.167953,18.334 136.424894,16.8673333 C136.6176,15.6423333 137.047482,15.184 137.846306,15.2706667 C138.679718,15.3523333 139.004188,16.039 138.757129,17.3356667 C138.307482,19.7923333 137.852894,22.2173333 137.563012,23.6873333 C137.235247,25.3623333 137.040894,26.0873333 137.523482,26.2523333 C137.7656,26.3506667 138.274541,26.2123333 139.369835,25.8256667 C140.3416,25.489 141.183247,25.4023333 141.443482,26.3306667 C141.619718,26.9023333 141.375953,27.504 140.850541,27.7423333 C139.435718,28.4406667 136.556659,29.479 135.971953,29.529 C135.194541,29.6056667 134.680659,29.2123333 134.4336,28.384" id="Fill-25" fill="#F3EEE7"/>
                    <path d="M143.318659,27.1111667 C143.0996,26.4145 143.649718,23.3078333 144.213012,19.8995 C144.456776,18.4511667 144.702188,17.0045 144.908071,15.5311667 C145.0596,14.2995 145.471365,13.8245 146.275129,13.8828333 C147.110188,13.9361667 147.459365,14.6095 147.256776,15.9145 C146.891129,18.3878333 146.522188,20.8261667 146.283365,22.3045 C146.014894,23.9911667 145.8436,24.7228333 146.332776,24.8695 C146.578188,24.9595 147.080541,24.8028333 148.162659,24.3778333 C149.121247,24.0061667 149.961247,23.8895 150.252776,24.8078333 C150.450424,25.3745 150.224776,25.9828333 149.709247,26.2428333 C148.319129,26.9911667 145.477953,28.1295 144.894894,28.1995 C144.120776,28.3045 143.593718,27.9311667 143.318659,27.1111667" id="Fill-27" fill="#F3EEE7"/>
                    <path d="M152.239129,25.4656667 C152.137012,25.0156667 152.303365,22.3456667 152.580071,20.459 C153.005012,16.8506667 153.184541,13.199 154.484071,12.899 C154.889247,12.7723333 155.312541,12.8756667 155.678188,13.164 C156.244776,13.6073333 157.345012,15.684 157.956071,17.0623333 L158.507835,18.184 C158.774659,18.6273333 158.921247,18.8323333 159.268776,18.7523333 C159.680541,18.6556667 159.695365,17.979 159.883129,16.5856667 C160.120306,14.6723333 160.421718,12.7473333 160.909247,12.0956667 C161.095365,11.884 161.294659,11.7373333 161.610894,11.664 C162.086894,11.554 162.823129,11.8573333 162.958188,12.6023333 C163.0076,12.8273333 162.971365,13.1056667 162.908776,13.424 C162.236776,16.0756667 162.133012,17.2473333 161.696541,21.0956667 C161.609247,21.8906667 161.518659,22.824 161.362188,23.9056667 C161.278188,24.4323333 160.9636,24.8073333 160.518894,24.9106667 C160.075835,25.014 159.580071,24.889 159.123835,24.489 C158.372776,23.819 158.077953,22.8056667 156.124541,18.8673333 C155.874188,18.4873333 155.360306,18.5706667 155.254894,18.999 C154.848071,20.7473333 154.652071,23.2906667 154.561482,24.9656667 C154.508776,25.9223333 154.101953,26.4873333 153.400306,26.480725 C152.863365,26.4706667 152.374188,26.0756667 152.239129,25.4656667" id="Fill-29" fill="#F3EEE7"/>
                    <path d="M166.284259,21.6978333 C165.976259,20.6228333 165.895553,19.5161667 165.814847,18.4078333 C165.722612,17.0295 165.727553,12.6761667 165.821435,11.8245 C165.958141,10.1745 166.437435,9.48616667 167.674376,9.1895 C169.766141,8.5745 172.055553,7.93616667 172.521671,9.2045 C173.159082,10.5945 170.904259,11.1195 169.104024,11.3411667 C168.491318,11.4528333 168.175082,11.6478333 168.201435,12.3261667 C168.231082,12.9011667 168.211318,13.4195 168.231082,13.9611667 C168.214612,14.3778333 168.492965,14.6395 168.947553,14.5745 C170.327788,14.3061667 171.195788,13.9128333 171.640494,14.9828333 C172.129671,16.4511667 170.515553,16.6161667 168.998612,17.2328333 C168.384259,17.4478333 168.211318,17.6711667 168.217906,18.2845 C168.234376,18.6911667 168.298612,19.1545 168.352965,19.5811667 C168.466612,20.0978333 168.797671,20.3078333 169.359318,20.1428333 C171.3292,19.5645 172.297671,18.4578333 172.996024,19.8295 C173.216729,20.2445 173.104729,20.7911667 172.707788,21.1811667 C172.2812,21.5828333 168.944259,22.9395 168.537435,23.0578333 C167.354847,23.3045 166.618612,22.8678333 166.284259,21.6978333" id="Fill-31" fill="#F3EEE7"/>
                    <path d="M176.861341,18.991 C176.457812,18.4376667 176.472635,17.6993333 176.922282,17.2193333 C177.343929,16.751 177.849576,16.7076667 178.432635,17.0893333 C179.122753,17.5726667 179.875459,17.6476667 180.679224,17.286 C182.309812,16.5193333 181.837106,14.416 179.923224,13.5026667 C179.028871,13.1276667 177.009576,12.4993333 176.442988,12.0776667 C175.500871,11.371 175.235694,10.5226667 175.538753,9.43266667 C176.144871,7.63766667 178.190518,5.70433333 180.351459,4.88266667 C181.178282,4.581 181.748165,4.72266667 182.059459,5.311 C182.423459,5.94766667 182.169812,6.49433333 181.186518,7.13266667 C180.374518,7.56766667 179.560871,8.00433333 178.877341,8.70766667 C177.790282,9.83766667 177.902282,10.146 179.280871,10.6226667 C181.613106,11.3493333 182.935694,12.4426667 183.821812,14.2543333 C184.643694,15.9826667 183.882753,18.2193333 182.146753,19.271 C180.4124,20.3226667 177.702988,20.1893333 176.861341,18.991" id="Fill-33" fill="#F3EEE7"/>
                    <path d="M188.609647,14.5933333 C188.16,14.0783333 188.110588,13.34 188.519059,12.8233333 C188.899529,12.32 189.398588,12.2333333 190.012941,12.5633333 C190.742588,12.985 191.498588,12.995 192.271059,12.5633333 C193.827529,11.6566667 193.180235,9.60333333 191.193882,8.86166667 C190.273176,8.565 188.206118,8.11333333 187.606588,7.74166667 C186.606824,7.12 186.269176,6.29666667 186.48,5.185 C186.931294,3.34333333 188.805647,1.24 190.890824,0.233333333 C191.688,-0.138333333 192.267765,-0.045 192.626824,0.511666667 C193.045176,1.115 192.836,1.68166667 191.912,2.40333333 C191.137882,2.90666667 190.365412,3.41333333 189.744471,4.17333333 C188.757882,5.39166667 188.894588,5.69166667 190.309412,6.04666667 C192.694353,6.56833333 194.104235,7.54333333 195.140235,9.27 C196.107059,10.9216667 195.538824,13.2166667 193.898353,14.415 C192.259529,15.6116667 189.548471,15.715 188.609647,14.5933333" id="Fill-35" fill="#F3EEE7"/>
                </g>
            </g>
</svg>