<svg xmlns="http://www.w3.org/2000/svg" xmlns:xlink="http://www.w3.org/1999/xlink" width="179px" height="142px" viewBox="" version="1.1">
    <title>Franchise - 1</title>

<g xmlns="http://www.w3.org/2000/svg" id="Group-20" transform="">
                <path d="M109.353989,114.935017 C102.021116,121.740379 93.6343748,123.983718 84.4734262,121.89195 C78.5563601,120.540953 73.0134873,118.170576 68.2049958,113.690908 C63.9396315,109.718083 59.93292,105.414518 56.7485582,100.110847 C56.5367342,99.758642 56.3371645,99.3950468 56.1445973,99.0275091 C56.1117733,98.9653036 56.1397831,98.8566631 56.1397831,98.5719199 C57.0645435,99.2176299 57.9083381,99.8221616 58.7639494,100.400409 C62.5203235,102.93769 66.3672917,105.306316 70.6523504,106.142147 C74.2047782,106.835606 77.8101621,107.31266 81.4046046,107.475183 C87.1378565,107.734956 92.8846756,107.651724 98.5605949,106.38615 C106.890878,104.529186 114.294651,100.44334 120.325069,93.1000317 C120.523326,92.8595332 120.722458,92.620787 120.929905,92.3929924 C120.982424,92.3360438 121.071267,92.3281586 121.444585,92.1691405 C121.15836,94.1478867 121.245891,96.1691254 120.576282,97.7133097 C117.730663,104.271165 114.237319,110.402781 109.353989,114.935017" id="Fill-1" fill="#E8D0CD"/>
                <g id="Group-5" transform="">
                    <mask id="" fill="white">
                        <use xmlns:xlink="http://www.w3.org/1999/xlink" xlink:href="#path-34"/>
                    </mask>
                    <g id="Clip-4"/>
                    <path d="M161.905675,47.3343958 C160.144122,44.9968731 158.383008,42.6589124 156.566748,40.2482326 C159.919169,41.4787613 160.956844,44.3713142 161.905675,47.3343958 L161.905675,47.3343958 Z M149.387929,37.8743505 C153.334682,37.8003172 155.671311,40.2206344 157.621054,43.4356042 C154.804758,41.5330816 152.083433,39.6953927 149.387929,37.8743505 L149.387929,37.8743505 Z M147.059616,41.6627492 C142.838455,40.5115106 138.63655,39.3655287 134.41889,38.2151662 C134.989152,38.1731118 135.586548,38.0237311 136.150682,38.1047734 C139.987147,38.6549849 143.597783,39.9113595 147.059616,41.6627492 L147.059616,41.6627492 Z M120.606567,41.7525529 C120.468707,39.0374169 120.59869,36.4563293 123.045169,34.5375982 C125.74855,32.4182326 128.690453,30.7386858 131.789034,29.2659063 C127.867228,33.2374169 123.357215,36.6736103 120.606567,41.7525529 L120.606567,41.7525529 Z M119.304113,43.170136 C118.771052,43.1184441 118.237115,43.0163746 117.704492,43.0233837 C115.769191,43.0492296 113.834766,43.111435 111.899465,43.1600604 C111.470565,43.170136 110.963325,43.3348489 110.62502,43.164003 C108.47133,42.0767221 106.177592,41.7924169 103.549049,41.9146375 C105.500105,40.1755136 107.202575,38.6414048 108.926927,37.1327039 C109.412722,36.7073414 110.019746,36.9136707 111.292003,37.8826737 C110.051257,38.7373414 108.838521,39.5731722 107.625785,40.408565 C107.736949,40.5724018 107.847675,40.7366767 107.958839,40.9009517 C109.134374,40.1636858 110.324352,39.4474471 111.478005,38.6782024 C111.977367,38.3452719 112.400577,38.0250453 112.88856,38.7482931 C112.039951,39.4842447 111.190905,40.2197583 110.343171,40.9548338 C110.442956,41.0840634 110.544054,41.2132931 110.644277,41.3429607 C111.042103,41.0954532 111.459186,40.8737915 111.833817,40.5951813 C113.969125,39.0089426 113.965624,39.0041239 116.253673,40.666148 C115.896986,41.1134139 115.542487,41.5571752 115.187988,42.0013746 C115.255824,42.0710272 115.32366,42.1411178 115.391934,42.2103323 C115.840091,41.813006 116.289122,41.4152417 116.922406,40.8532024 C117.723748,41.5024169 118.578922,42.1945619 119.434096,42.887145 C119.390768,42.9808912 119.34744,43.0755136 119.304113,43.170136 L119.304113,43.170136 Z M118.284819,45.5659215 C118.30889,46.0061782 118.353968,46.445997 118.353968,46.8858157 C118.348279,57.5917221 118.36491,68.2976284 118.30714,79.0035347 C118.294885,81.2652719 118.024854,83.5270091 117.826597,85.7843656 C117.795086,86.1448943 117.588076,86.5549245 117.335113,86.8212689 C111.632934,92.8118278 104.857631,96.9975529 96.7719954,98.9254834 C92.7775381,99.8778399 88.7117435,100.262462 84.6096237,100.377236 C78.6824917,100.541949 72.7321641,100.690891 66.9288878,99.3547885 C63.7064501,98.613142 60.614433,97.2713444 57.5040345,96.0925076 C56.0243303,95.5317825 54.6584159,94.6779909 53.2045333,94.0406042 C52.5296726,93.7440332 52.2395088,93.3361934 52.1817386,92.6217069 C51.897702,89.0943958 51.3733939,85.5727795 51.3208756,82.0432779 C51.1882667,73.1308157 51.2609171,64.2139728 51.2556653,55.2993202 C51.2552276,54.9182024 51.2959293,54.5379607 51.3169367,54.157281 C53.5467778,58.6071601 55.5057117,63.0679909 57.9990198,67.2528399 C58.1333792,67.1884441 58.2664257,67.1244864 58.4003474,67.0600906 C56.1551885,62.3061934 53.9100296,57.551858 51.581279,52.6205438 L54.0054379,52.6205438 C54.0273205,56.0536707 58.8095528,63.7294713 61.5798951,64.6340785 C58.7491567,61.0546375 56.0278315,57.4121148 54.3791934,52.7068429 C55.5135895,52.9473414 56.3425039,53.0989124 57.1534746,53.3161934 C57.3219709,53.3613142 57.5154134,53.6377341 57.5442985,53.8304834 C58.0283425,57.0174169 59.8074012,59.6664048 61.1439929,62.4936858 C61.9081347,64.109713 62.8035724,65.6648489 63.6793156,67.2248036 C63.8990174,67.6168731 64.268834,67.9239577 64.6990467,68.4185347 C64.7778242,67.9887915 64.8159,67.78071 64.8566017,67.5616767 C65.0482936,67.6142447 65.2303572,67.6637462 65.530587,67.7461027 C65.4220491,67.4245619 65.3572765,67.174864 65.2553034,66.9413746 C63.8920149,63.8078852 62.4959024,60.6884139 61.1737533,57.5382779 C60.8306335,56.7208459 60.7124672,55.8087915 60.4761347,54.8814048 C62.2705112,55.0106344 63.2228438,56.009426 63.6197949,57.4239426 C64.4132594,60.2520997 65.3708438,63.035574 66.2881641,65.8278097 C66.5735137,66.6951813 66.8667411,67.5783233 67.3008927,68.3751662 C68.3989636,70.3902719 69.5788756,72.3602568 70.8471934,74.3236707 C70.1465112,69.9762991 69.2335675,65.6617825 69.2388193,61.2377492 C70.7023303,61.2088369 71.4047631,61.9640634 71.2117582,63.2721299 C70.732966,66.5177644 71.1898756,69.6954985 71.8861812,72.8539577 C71.9719611,73.2442749 72.2262374,73.5977946 72.5724208,73.9285347 C72.1365186,70.3398943 71.5553156,66.7889275 71.6831103,63.0898943 C73.2398413,64.0431269 73.4437875,64.5793202 73.1698169,66.1524169 C72.5724208,69.5820393 72.986878,72.9823112 73.5777093,76.3681269 C73.6254134,76.6445468 73.8280467,76.8938066 73.9593425,77.1557704 C74.0560638,77.1338671 74.1527851,77.1124018 74.249944,77.0904985 C74.0998291,75.5826737 73.9987313,74.0682779 73.7842814,72.5700906 C73.6144721,71.3789879 73.8656848,70.4625529 75.1357533,69.8479456 C75.1821445,73.4716314 75.0613523,77.0620242 76.1419171,80.5661178 C75.9659807,78.8887613 76.8355968,77.6573565 77.7463523,76.2213746 C78.0925357,78.4327341 78.4128976,80.4789426 78.7332594,82.5251511 L79.2194917,82.5251511 C79.1354623,81.0453625 78.5529465,79.3934139 80.2195284,78.6911934 C81.2856506,79.9396828 81.4467068,81.8089124 82.9084672,82.7980665 C83.0275088,82.7332326 83.1452374,82.6679607 83.264279,82.6031269 C82.7710443,81.4418127 82.2778095,80.2809366 81.7850125,79.1200604 C82.780235,80.237568 83.0577068,81.8036556 84.4078658,82.6355438 C83.8279758,80.5507855 81.4436433,78.8821903 83.2467729,76.0842598 C84.3711029,77.9057402 85.4214697,79.6080665 86.4727117,81.3103927 L86.7029171,81.2906798 C86.7029171,80.9875378 86.8202081,80.6103625 86.684098,80.3930816 C85.6381078,78.7227341 86.3256604,77.0046375 86.4652716,75.2974924 C86.6749073,72.7247281 86.8582839,70.1497734 87.0416604,67.5748187 C87.0591665,67.3246828 86.9983328,67.0684139 86.7291763,66.8020695 C86.4123156,69.3227039 86.095455,71.8433384 85.7667778,74.457719 C84.127768,73.2337613 84.127768,73.2337613 84.5960565,71.7636103 C84.8004403,71.8166163 85.0061372,71.8700604 85.3650125,71.9633686 C84.3627875,70.8901057 84.4761396,69.8799245 85.1102985,68.8377644 C86.3379147,66.8204683 87.5541518,64.7970393 88.9121885,62.8204834 C89.3511543,67.6059215 88.750257,72.328716 88.5279293,77.0580816 C88.6404061,77.1062689 88.7528829,77.1544562 88.8653597,77.2030816 C89.0588022,76.8548187 89.3844159,76.5214502 89.42468,76.1565408 C89.9039098,71.768429 90.3862032,67.3768127 89.7065284,62.9641692 C89.4973303,61.6044109 90.2890443,60.0887009 91.9044208,59.1324018 C91.9941396,63.8893656 91.517098,68.4737311 91.0667533,73.0594109 C91.1836066,73.1014653 91.3004599,73.1439577 91.4168756,73.1864502 C91.6317631,72.6314199 91.940746,72.0930363 92.0400932,71.517855 C92.2497289,70.3057251 92.4707435,69.0756344 92.4707435,67.8525529 C92.4703059,64.999426 92.4672423,62.1353474 92.2173425,59.2975529 C92.0781689,57.7200755 93.235323,57.2311934 93.9745186,56.3151964 C94.3224526,60.7186405 93.6152056,65.0051208 92.8024844,69.2832779 C92.9359685,69.3327795 93.0694526,69.3814048 93.2029367,69.4304683 C93.4488976,68.9481571 93.8226531,68.4908157 93.9215626,67.9795921 C94.6506922,64.2310574 95.3259905,60.4759517 94.6992716,56.6275378 C94.4581249,55.1433686 95.0524575,54.4529758 96.9995748,53.9978248 C97.0512178,59.3759668 95.9767802,64.5525982 94.8813352,70.0275529 C95.2931665,69.6762236 95.5141812,69.5684592 95.6122154,69.3919184 C98.1418487,64.8688822 100.734942,60.373006 102.095167,55.3129003 C102.679871,53.1352719 103.199802,50.9405589 103.782318,48.7624924 C103.86591,48.4510272 104.071607,48.087432 104.331135,47.9235952 C105.196374,47.3777644 106.111506,46.9116616 107.31899,46.2422961 C107.187257,47.1696828 107.221394,47.8539426 106.987687,48.4282477 C105.309726,52.5451964 103.579247,56.6402417 101.858396,60.7392296 C101.694277,61.1299849 101.476325,61.4979607 101.141959,62.1546224 C101.700841,61.8865257 101.979626,61.7520393 102.30524,61.5960876 L102.30524,62.4744109 C102.381829,62.5195317 102.458418,62.5642145 102.535445,62.6088973 C102.899572,62.1765257 103.362609,61.7945317 103.612509,61.3030211 C105.840599,56.9092145 108.043744,52.5022659 110.220191,48.0821752 C110.513856,47.4859668 110.788264,46.7938218 110.777323,46.1507402 C110.755878,44.9083837 111.49945,44.6385347 112.457472,44.4847734 C113.034736,44.3919033 113.609812,44.284139 114.519692,44.1251208 C114.219025,45.075287 114.081164,45.8419033 113.747673,46.5117069 C111.86489,50.2987915 109.673125,53.8896224 106.849389,57.0634139 C106.526401,57.4261329 106.227484,57.8103172 105.917626,58.1853021 L106.181531,58.4840634 C106.710215,58.1292296 107.318553,57.8523716 107.754017,57.4059819 C110.614516,54.4748792 112.844795,51.0947583 114.51269,47.3668127 C114.946841,46.3956193 114.987981,45.2483233 115.242695,44.0199849 C115.869413,43.9805589 116.718898,43.9266767 117.928132,43.849577 C115.261951,49.8677341 112.45791,55.5275529 109.760218,61.2351208 C109.864379,61.308716 109.968103,61.3827492 110.071827,61.4563444 C110.443832,60.9565106 110.904242,60.4996073 111.172086,59.9485196 C113.399301,55.3755438 115.591504,50.7859215 117.791147,46.1998036 C117.890932,45.9925982 117.967521,45.7748792 118.284819,45.5659215 L118.284819,45.5659215 Z M119.697125,91.4301662 C121.533078,92.7202719 123.480196,93.0496979 125.677213,92.7233384 C126.173074,105.896873 124.533626,118.853127 123.446059,131.944743 C119.525127,130.54074 115.849719,128.95713 111.540152,129.570423 C115.85891,117.0829 117.449778,104.287855 119.697125,91.4301662 L119.697125,91.4301662 Z M105.535555,108.392538 C98.2731445,113.991027 89.9656188,115.836163 80.8926384,114.115438 C75.0315919,113.004063 69.5412374,111.053792 64.7782619,107.368776 C60.5540369,104.100801 56.5854012,100.560347 53.4312374,96.1976435 C53.2211641,95.9076435 53.0237826,95.6088822 52.8325284,95.3066163 C52.8001421,95.2553625 52.8281518,95.165997 52.8281518,94.9316314 C53.7441592,95.462568 54.580076,95.9602115 55.4273719,96.4359517 C59.1478584,98.5233384 62.9585015,100.47142 67.2024208,101.159184 C70.7207117,101.729547 74.2923963,102.121616 77.8522643,102.255665 C83.5316848,102.469441 89.2237973,102.400665 94.84501,101.359819 C103.096078,99.832281 110.430264,96.470997 116.402912,90.4304985 C116.598981,90.2324924 116.796362,90.0358006 117.001621,89.8487462 C117.05414,89.801435 117.142108,89.794864 117.511487,89.6643202 C117.228325,91.2921752 117.314543,92.9550755 116.651499,94.2250302 C113.833015,99.6198187 110.372932,104.663716 105.535555,108.392538 L105.535555,108.392538 Z M56.9622203,124.777538 C53.3520222,124.427523 50.2556286,125.656737 46.9150247,126.900846 C46.1412545,116.771435 44.8125406,106.781329 45.009922,96.6948489 C47.9124355,96.3886405 47.9124355,96.3886405 50.4770809,94.9075378 C52.2154379,104.960725 53.5669098,114.965725 56.9622203,124.777538 L56.9622203,124.777538 Z M50.2306824,51.8127492 C51.0731641,51.093006 51.7318315,50.5309668 52.4298878,49.9347583 C52.9064917,50.3658157 53.2684306,50.6943656 53.6308071,51.0224773 C53.6771983,50.9839275 53.7235895,50.9458157 53.7699807,50.9072659 C53.5428389,50.572145 53.3165724,50.2370242 53.0933694,49.9071601 C54.8610491,47.4574924 56.235279,49.5843051 57.7184844,50.4039275 C57.7941983,50.2913444 57.8699122,50.1787613 57.9460638,50.0661782 C57.2738291,49.4528852 56.6015944,48.8395921 55.9297973,48.2262991 C56.5245675,47.7733384 56.5149391,47.7869184 57.9421249,48.7353323 C58.5828487,49.161571 59.268213,49.5203474 59.9338829,49.9097885 C60.0161616,49.7783686 60.0984403,49.6473867 60.1802814,49.5159668 C59.1981885,48.8422205 58.2169709,48.1680363 57.2051176,47.4737009 C58.6463083,46.3899245 58.731213,46.4135801 59.8743621,47.4500453 C61.0695919,48.5329456 62.3072741,49.5689728 63.4731812,50.888429 C63.0626628,50.888429 62.646455,50.8441843 62.2429391,50.8971903 C61.1846946,51.0364955 60.0481103,51.0229154 59.099279,51.4329456 C57.9359978,51.9358459 56.8458046,51.9240181 55.6448853,51.8416616 C53.9581714,51.7260121 52.2574526,51.8127492 50.2306824,51.8127492 L50.2306824,51.8127492 Z M53.0675479,47.8999396 C52.1559171,48.5649245 51.4377289,49.0884139 50.6854037,49.6373112 C50.7186653,48.094003 50.769433,48.0558912 53.0675479,47.8999396 L53.0675479,47.8999396 Z M52.7716946,43.566148 C53.7559758,41.6631873 54.8759293,39.8307553 55.9140418,37.9553927 C56.2063939,37.4266465 56.5228169,37.3162538 57.1512863,37.3972961 C58.5228902,37.5742749 59.9176897,37.5751511 61.3037362,37.63429 C61.804411,37.6557553 62.3072741,37.6377946 62.8587166,37.6377946 C62.478834,38.5888369 62.4783963,38.5866465 59.898433,39.2787915 C58.7889831,39.5762387 57.6825968,39.8863897 56.6072839,40.3748338 C57.5346702,40.2171299 58.4624941,40.059426 59.5093597,39.8811329 C59.466032,40.2066163 59.4318951,40.4536858 59.3986335,40.6994411 C58.9211543,41.2662991 58.2869954,41.6754532 58.1364428,42.5458912 C58.0721078,42.9173716 57.3753645,43.2949849 56.8952594,43.4548792 C55.7442325,43.8381873 54.5507533,44.0940181 53.4255479,44.6350302 C54.6719831,44.3827039 55.9184183,44.1303776 57.1648535,43.8771752 L57.4130027,44.185136 C57.0532521,44.6937311 56.8042276,45.4274924 56.3131812,45.6693051 C54.7687044,46.4289124 53.1331958,47.0032175 51.5331372,47.6498036 C51.4232863,47.5367825 51.3129978,47.4241994 51.2027093,47.3111782 C51.7191396,46.0600604 52.1519782,44.7646979 52.7716946,43.566148 L52.7716946,43.566148 Z M57.3635479,45.2224773 C57.3228462,43.9661027 58.1381934,43.5587009 59.0813352,43.242855 C58.1592007,42.6689879 58.4200418,42.0929305 59.7977729,41.3377039 C59.6717289,41.11429 59.5474355,40.8935045 59.4231421,40.672281 C59.4196408,40.6762236 59.4165773,40.67929 59.4135137,40.6827946 C59.9829,39.7659215 60.7282227,39.163142 62.2363743,39.3261027 C60.3045748,41.186571 60.3763499,44.3117372 57.3635479,45.2224773 L57.3635479,45.2224773 Z M62.3764232,46.5721601 C63.4828095,47.6511178 64.6640345,48.6564804 65.8391323,49.6614048 C66.1468022,49.9246828 66.5555699,50.0696828 66.9170711,50.268565 L67.1043866,50.0171148 C65.4824452,48.5798187 63.8605039,47.1429607 62.2070516,45.6776284 C63.6714379,44.7147583 63.7987949,44.7765257 64.9261885,45.7832024 C66.6137778,47.2888369 68.3635137,48.726571 70.1009954,50.1748187 C70.3907215,50.4157553 70.755724,50.5646979 71.0865895,50.756571 C71.1522374,50.6724622 71.2174477,50.5887915 71.2835333,50.5051208 C69.1294061,48.6634894 66.975279,46.8222961 64.7546286,44.923716 C66.5069905,44.0975227 66.6925553,44.2066012 67.7976286,45.4279305 C69.4221958,47.2231269 71.145235,48.9293958 72.8231958,50.6759668 C73.0897264,50.9537009 73.3409391,51.2467674 73.7151323,51.6607402 C70.606922,51.3983384 67.7276042,51.1595921 64.848724,50.9059517 C64.6237704,50.8858006 64.3559269,50.8200906 64.195746,50.677281 C62.6595846,49.3087613 61.1431176,47.9187764 59.6113328,46.5266012 C60.9448609,45.477432 61.3116139,45.5335045 62.3764232,46.5721601 L62.3764232,46.5721601 Z M64.5349269,40.4611329 C64.5887582,40.5137009 64.6425895,40.5658308 64.6964208,40.6183988 C64.19312,41.3236858 63.690257,42.0289728 63.1869562,42.7338218 L61.4967411,43.704139 L61.266098,43.4088822 C62.3554159,42.4262991 63.4447337,41.443716 64.5349269,40.4611329 L64.5349269,40.4611329 Z M78.1319244,35.7606798 C76.8053988,36.8716163 75.6793181,38.1884441 74.2547582,38.9265861 C71.5701958,40.3170091 68.7131983,41.3745015 65.8934012,42.4841239 C67.1980443,40.7940634 75.1668267,36.4751662 78.1319244,35.7606798 L78.1319244,35.7606798 Z M75.7475919,39.881571 C76.8421616,39.0785952 77.9371689,38.2756193 79.031301,37.4726435 C78.3004208,39.7838822 78.0754672,39.9512236 75.7475919,39.881571 L75.7475919,39.881571 Z M83.4323377,35.2393807 C82.2055968,37.4419789 79.7639318,40.0765106 78.7949685,40.0773867 C80.0554086,38.1428852 80.5556457,35.6949698 83.4323377,35.2393807 L83.4323377,35.2393807 Z M84.5190296,35.1105891 C84.9531812,34.5739577 85.7737802,34.3514199 86.4184428,33.9851964 L86.7978878,34.378142 C86.5269807,35.0146526 86.3090296,35.6805136 85.9746628,36.2819789 C85.1860125,37.6982477 84.3207729,39.071148 83.5308095,40.4865408 C83.157054,41.1554683 82.7509122,41.4840181 81.9342521,41.219864 C81.4629,41.0669789 80.9197729,41.1383837 80.146878,41.094139 C80.5714012,40.5487462 80.9083939,40.1466012 81.2112496,39.7208006 C82.3084452,38.1792447 83.3303645,36.5772356 84.5190296,35.1105891 L84.5190296,35.1105891 Z M88.2123817,33.8042749 C88.8653597,33.6781118 89.5476604,33.7065861 90.3424379,33.6645317 C89.7748022,35.3313746 85.2752936,41.1681722 83.8126579,41.9882326 C84.1356457,41.3749396 84.306768,41.0187915 84.5050247,40.6779758 C85.6595528,38.6917825 87.0241543,36.810287 87.3729636,34.4399094 C87.4106017,34.1836405 87.8928951,33.8664804 88.2123817,33.8042749 L88.2123817,33.8042749 Z M108.294081,45.8970997 C108.859966,45.5847583 109.496751,45.4025227 110.105526,45.1681571 C110.214501,45.2570846 110.323477,45.3460121 110.43289,45.4349396 C109.182954,48.1281722 107.93258,50.8209668 106.682643,53.5141994 C106.579357,53.4498036 106.476946,53.3854079 106.373223,53.3210121 C106.659448,52.5513293 107.048083,51.8022356 107.208264,51.007145 C107.494052,49.5908761 107.624034,48.1443807 107.859929,46.7167221 C107.908509,46.4201511 108.064751,46.024139 108.294081,45.8970997 L108.294081,45.8970997 Z M100.489418,47.9980665 C99.9432276,48.3086556 99.3668389,48.6402719 98.7637533,48.7629305 C94.7207166,49.5829909 90.9542765,51.1473263 87.27668,52.9521601 C85.4595455,53.8436254 83.6393474,54.7399094 81.8922374,55.7579758 C80.8751323,56.3506798 80.042279,56.240287 78.9722178,55.5196677 C86.3541078,51.2546526 93.5675015,46.9541541 102.283795,46.0482326 C100.174308,45.2329909 97.4083425,45.839713 88.7594477,48.9622508 C88.5239905,48.6577946 88.2697142,48.3292447 87.8355626,47.7672054 C88.7021152,47.6730211 89.3253328,47.6055589 90.0689049,47.5249547 C90.1603743,47.4325227 90.3525039,47.0768127 90.6330394,46.9804381 C96.1439636,45.0893051 101.794061,43.9104683 107.635851,43.7575831 C107.817039,43.7527644 107.999978,43.7943807 108.496277,43.849577 C106.930355,44.5509215 105.615646,45.0660876 104.372274,45.7179305 C103.044873,46.4135801 101.794061,47.2564199 100.489418,47.9980665 L100.489418,47.9980665 Z M99.3410174,58.2457553 C99.8036164,56.002855 100.489856,53.7766012 99.9878682,51.4311934 C99.9375381,51.1950755 100.118289,50.7955589 100.320922,50.637855 C101.158152,49.9860121 102.045712,49.3972508 103.06413,48.8768278 C101.987504,53.6408006 100.181311,58.1213444 98.2945895,62.586994 C98.6464623,61.1409366 99.0399122,59.7027644 99.3410174,58.2457553 L99.3410174,58.2457553 Z M97.4341641,53.1891541 C97.4201592,52.99071 97.4928095,52.7055287 97.6324208,52.5907553 C98.1698584,52.1478701 98.7501861,51.758429 99.5861029,51.1525831 C99.551966,55.0706495 98.446455,58.4376284 97.361076,61.7608006 C97.5068144,60.3830816 97.761966,59.0066767 97.7680932,57.6289577 C97.7750956,56.1496073 97.5387631,54.6702568 97.4341641,53.1891541 L97.4341641,53.1891541 Z M81.5416775,59.9288066 C80.8567509,59.4013746 80.1586946,58.8638671 79.4689538,58.3329305 C81.4580858,56.6858006 95.3806971,49.6487009 97.7300174,49.5851813 C96.0240467,51.1762387 94.2331714,52.8505287 92.4344183,54.5164955 C92.2926188,54.6479154 92.1044281,54.7346526 91.9271787,54.8213897 C88.4412741,56.5381722 84.9531812,58.2518882 81.5416775,59.9288066 L81.5416775,59.9288066 Z M87.5550271,59.3869184 C85.8346139,60.0672356 84.2367435,61.084864 82.6458756,62.0560574 C81.9640125,62.4726586 81.5066653,62.4428701 80.8383694,61.6858912 C84.0853156,59.8666012 87.2679269,58.0841088 90.4509758,56.3011782 L90.6312888,56.6113293 C89.9170394,57.8795317 89.0049709,58.8134894 87.5550271,59.3869184 L87.5550271,59.3869184 Z M81.8287778,65.9780665 C81.3775577,65.6990181 80.9976751,65.4637764 80.3604526,65.0690785 C82.8944623,63.3838369 85.2337166,61.8273867 87.5729709,60.2709366 C87.68501,60.4176888 87.7970491,60.564003 87.9095259,60.7107553 C86.2573866,62.8423867 83.6603548,63.9209063 81.8287778,65.9780665 L81.8287778,65.9780665 Z M83.4489685,66.936994 C83.3693156,66.99 83.0511421,66.6859819 82.7316555,66.4726435 C83.7750198,65.5553323 84.7238511,64.7203776 85.6735577,63.8845468 C85.3619489,65.2600755 84.5352227,66.2106798 83.4489685,66.936994 L83.4489685,66.936994 Z M83.8936237,74.193565 C85.6547386,75.4994411 85.7330785,75.6812387 85.2805455,77.2998943 C83.8310394,76.1193051 83.4472178,75.2961782 83.8936237,74.193565 L83.8936237,74.193565 Z M81.4375161,68.4803021 C81.1486653,68.4803021 80.9346531,68.2441843 80.9219611,67.9646979 C80.9097068,67.6856495 81.167922,67.4486556 81.4375161,67.4486556 L83.3452447,67.4486556 C83.6340956,67.4486556 83.8485455,67.6847734 83.8607998,67.9646979 C83.8734917,68.2433082 83.6148389,68.4803021 83.3452447,68.4803021 L81.4375161,68.4803021 Z M79.2886408,73.7265861 C80.2934917,75.4652719 80.1315601,77.7313897 78.9722178,78.8874471 C78.1406775,76.7159517 78.2242692,74.9860272 79.2886408,73.7265861 L79.2886408,73.7265861 Z M77.620746,67.5761329 C78.504367,66.7162085 78.9074452,67.5984743 79.6453279,67.8691994 C78.5752667,68.9301964 78.2632203,67.8560574 77.620746,67.5761329 L77.620746,67.5761329 Z M77.5839831,71.8569184 C78.0387044,73.6630665 77.2531176,75.1319033 76.2968462,76.6003021 C75.7808535,74.1300453 75.7173939,72.9231722 77.5839831,71.8569184 L77.5839831,71.8569184 Z M64.3182888,56.7361782 C65.090746,57.2806949 65.8693303,57.8173263 66.6295333,58.3789275 C66.7323817,58.4551511 66.8032814,58.6689275 66.783587,58.8029758 C66.3052325,62.0192598 67.4313132,64.9959215 68.1411861,68.0347885 C68.1543156,68.0912991 68.100922,68.1635801 67.9678756,68.5508308 C66.5651983,64.5377039 65.2509269,60.7790937 63.9370932,57.0200453 C64.0635748,56.925861 64.1909318,56.8308006 64.3182888,56.7361782 L64.3182888,56.7361782 Z M59.9281934,52.6555891 C65.7003963,52.5035801 71.1456726,53.8055136 76.502543,55.7698036 C76.2106286,56.5784743 75.7655357,56.5977492 75.0280907,56.3664502 C72.5356579,55.5840634 70.0239685,54.8533686 67.4921469,54.2094109 C66.7428853,54.018852 65.9039049,54.1800604 65.1016873,54.2768731 C68.3271885,54.6812085 71.3662496,55.666858 74.3077142,56.9687915 C74.7383645,57.1593505 75.0613523,57.5943505 75.2832423,58.0963746 L77.1563963,58.0963746 C75.9598535,59.4066314 75.9795479,59.3496828 74.702477,58.9081118 C72.4542545,58.1309819 70.1762716,57.4436556 67.9201714,56.6897432 C67.3240883,56.490423 66.7494501,56.2122508 66.1888169,55.9231269 C64.2570174,54.928716 62.3352839,53.9141541 60.4096115,52.9066012 C60.2494306,52.8224924 60.0883743,52.7392598 59.9281934,52.6555891 L59.9281934,52.6555891 Z M60.057301,55.6725529 C60.1969122,56.9582779 60.6411298,58.2115861 60.9698071,59.4745317 C61.0643401,59.8372508 61.2240834,60.1833233 61.3536286,60.5368429 C61.2665357,60.5732024 61.1794428,60.6091239 61.0919122,60.6454834 C60.0428584,58.4056495 58.9938046,56.1666918 57.8401518,53.7034441 C59.8704232,53.9881873 59.8918682,54.1472054 60.057301,55.6725529 L60.057301,55.6725529 Z M77.0439196,57.1085347 C77.9520491,56.128142 78.1244844,56.1154381 79.3814232,56.931994 C78.2378364,57.9233384 78.1240467,57.9316616 77.0439196,57.1085347 L77.0439196,57.1085347 Z M76.9625161,59.9870695 C77.987499,58.5379456 78.3875137,58.7039728 80.956098,60.4409063 C79.3612912,62.1725831 78.3144257,60.1868278 76.9625161,59.9870695 L76.9625161,59.9870695 Z M76.0206873,71.5691088 L76.0206873,68.7716163 C77.545032,69.8536405 77.5393425,70.2115408 76.0206873,71.5691088 L76.0206873,71.5691088 Z M76.6172081,65.1926133 C77.2154795,64.0751057 77.7958071,64.6419637 78.4273401,65.0410423 C77.8890271,66.0227492 77.2964452,65.6622205 76.6172081,65.1926133 L76.6172081,65.1926133 Z M80.9981127,66.5177644 C80.2746726,67.7268278 79.7783743,66.5712085 78.9498976,66.5598187 C79.8917264,65.3599547 80.3849611,66.1808912 80.9981127,66.5177644 L80.9981127,66.5177644 Z M78.2409,63.8565106 C79.2882032,62.4376133 79.9284892,62.2369789 81.0799538,63.0132326 C79.3928022,64.6507251 79.3928022,64.6507251 78.2409,63.8565106 L78.2409,63.8565106 Z M79.6733377,49.8248036 C79.5936848,49.9023414 79.5131567,49.9803172 79.4330663,50.0582931 C79.1761641,49.8156042 78.8912521,49.5961329 78.6680491,49.3258459 C78.0859709,48.6236254 77.5301518,47.8999396 76.9660174,47.1832628 C76.0163108,45.9763897 76.0171861,45.9755136 77.2535553,44.890861 C78.0575235,46.5301057 78.8654306,48.1772356 79.6733377,49.8248036 L79.6733377,49.8248036 Z M79.8081347,45.2347432 C79.9643768,45.46429 79.4269391,46.1678248 79.2037362,46.6562689 L78.7625822,46.5896828 L77.8973425,44.5202568 L78.2417753,44.1768127 C78.7857778,44.5145619 79.4790198,44.7506798 79.8081347,45.2347432 L79.8081347,45.2347432 Z M80.4230369,42.9879003 C79.9985137,42.821435 79.5766164,42.6470846 79.1074526,42.4574018 C79.8335186,41.7529909 80.663746,41.6693202 82.3167606,42.082855 C81.6799758,43.4798489 81.6795381,43.4811631 80.4230369,42.9879003 L80.4230369,42.9879003 Z M82.3548364,48.7611782 C81.7373083,49.0266465 81.2134379,49.2522508 80.5805919,49.523852 C80.1499416,48.8338973 79.7424868,48.179864 79.27201,47.4255136 C79.6838413,47.0934592 80.063724,46.7876888 80.5271983,46.4140181 C81.1254697,47.1819486 81.6913548,47.909139 82.3548364,48.7611782 L82.3548364,48.7611782 Z M81.1587313,45.5094109 C82.8730174,45.6530967 83.2787215,46.9186707 83.8752423,48.0650906 C82.9675504,48.3384441 81.6278951,47.0579758 81.1587313,45.5094109 L81.1587313,45.5094109 Z M74.0993914,51.0049547 C72.365411,49.1974924 70.5832888,47.4360272 68.8265504,45.6500302 C68.4484183,45.2654079 68.1057362,44.8457402 67.5394134,44.2092296 C68.912768,44.1023414 69.9885186,44.0182326 71.0559538,43.9345619 C71.4620956,46.828429 73.3313108,48.6744411 75.0110222,50.6225227 C75.1716408,50.809139 75.5996653,50.7640181 75.9524134,50.7004985 C74.4840883,48.5132326 72.4945186,46.7684139 71.7710785,44.205287 C73.1855724,43.5035045 74.133966,43.6270393 74.3698609,44.6223263 C74.587812,45.5418278 74.5239147,46.5287915 74.5930638,47.6349094 C74.9121127,47.4447885 75.2683621,47.2323263 75.6548095,47.0014653 C76.6062667,48.1421903 77.5616628,49.2877341 78.515746,50.4306495 C77.6014892,51.165287 76.0009929,51.4009668 75.5607142,53.003852 C78.5319391,51.6843958 81.4151958,50.4039275 84.2761323,49.1326586 C84.7413572,49.4379909 85.1164257,49.6837462 85.7418315,50.0937764 C85.5593303,49.4971299 85.4643597,49.1852266 85.370702,48.8790181 C86.3873694,48.0615861 86.8434037,48.9315861 87.600543,49.557145 C86.8066408,49.971994 86.1457851,50.295287 85.5046237,50.6553776 C83.1504892,51.9783384 80.7862888,53.2859668 78.4636653,54.6628097 C77.8575161,55.0220242 77.3612178,55.1078852 76.6933597,54.8814048 C73.1177362,53.6670846 69.5267949,52.450574 65.7319073,52.1807251 C63.6097289,52.0304683 61.4691689,52.154003 59.1767435,52.154003 C60.8884037,51.0075831 68.942966,51.2393202 75.0189,52.5706042 C74.6333279,51.8990483 74.450389,51.3711782 74.0993914,51.0049547 L74.0993914,51.0049547 Z M68.7429587,67.3281873 C68.0138291,65.8685498 66.9196971,60.3256949 67.1717851,58.9676888 C68.5600198,59.390423 68.7893499,59.7868731 68.7574012,61.0931873 C68.7044452,63.2585498 68.7429587,65.4261027 68.7429587,67.3281873 L68.7429587,67.3281873 Z M73.648609,69.296858 L73.648609,65.4979456 C75.8136775,66.7573867 75.8215553,67.7793958 73.648609,69.296858 L73.648609,69.296858 Z M71.5907655,59.9892598 C70.7277142,59.0373414 69.6432105,58.2864955 68.6576164,57.446284 C68.6952545,57.3661178 68.733768,57.2859517 68.7718438,57.2053474 C70.8292496,58.0446828 72.8870932,58.8840181 74.9628804,59.7312387 C74.7265479,60.2779456 74.5479856,60.6901662 74.3295968,61.1956949 C75.2828046,61.3060876 75.6898218,59.9419486 76.6754159,60.6139426 C77.3213914,61.0546375 78.0737166,61.3402568 78.7884037,61.6999094 C77.6325626,63.2401511 77.2417386,63.2997281 75.5856604,62.6627795 C74.0376824,62.0674471 72.7190345,61.2338066 71.5907655,59.9892598 L71.5907655,59.9892598 Z M82.0734257,70.2281873 C82.0458535,70.2930211 82.0069024,70.3530363 81.9613866,70.3981571 C81.8677289,70.4914653 81.7289929,70.54929 81.5963841,70.54929 L80.483433,70.54929 C80.3442594,70.54929 80.219966,70.4905891 80.1193059,70.3981571 C80.0177704,70.305287 79.9740051,70.166858 79.967878,70.0332477 C79.9626262,69.9044562 80.029587,69.758142 80.1193059,69.6679003 C80.2125259,69.5750302 80.3516995,69.5172054 80.483433,69.5172054 L80.7805993,69.5172054 C80.758279,69.5084441 80.7363963,69.5001208 80.714076,69.4917976 C80.6243572,69.4593807 80.5346384,69.4295921 80.4436066,69.401994 C80.2549782,69.3441692 80.0628487,69.2972961 79.8698438,69.2578701 C79.5866824,69.2004834 79.45101,68.8802568 79.5096555,68.6231118 C79.5744281,68.3383686 79.8803474,68.2087009 80.1442521,68.262145 C80.9679147,68.4299245 81.8287778,68.7492749 82.4384281,69.349864 C82.6436873,69.5526888 82.6261812,69.8751057 82.4384281,70.0801208 C82.3430198,70.1835045 82.2082227,70.2308157 82.0734257,70.2281873 L82.0734257,70.2281873 Z M80.8580638,73.0988369 C80.8396824,73.0983988 80.8208633,73.0957704 80.8016066,73.0957704 C80.6615577,73.0940181 80.5385773,73.0375076 80.4374795,72.9441994 C80.3355064,72.8513293 80.2921787,72.7129003 80.2860516,72.57929 C80.2799244,72.4504985 80.347323,72.3037462 80.4374795,72.2143807 C80.5298242,72.1215106 80.6703108,72.0619335 80.8016066,72.0628001 C81.2392594,72.0671903 81.6331469,72.2603776 82.0160932,72.4518127 C82.1351347,72.5118278 82.2125993,72.6371148 82.2528633,72.7602115 C82.2957533,72.8933837 82.2638046,73.0383837 82.2007826,73.1579758 C82.1416995,73.2696828 82.0121543,73.3621148 81.8926751,73.3949698 C81.7548144,73.4330816 81.6200174,73.4054834 81.495724,73.3432779 C81.3924379,73.2915861 81.2887142,73.2425227 81.1836775,73.1952115 C81.0777655,73.1535952 80.9696653,73.119864 80.8580638,73.0988369 L80.8580638,73.0988369 Z M81.2860883,74.7853927 C81.2707704,74.7560423 81.2545773,74.7262538 81.2357582,74.6986556 C81.2340076,74.6973414 81.2331323,74.6960272 81.232257,74.694713 C81.1337851,74.5948338 81.0869562,74.4673565 81.0808291,74.3298036 C81.0751396,74.1922508 81.1416628,74.0634592 81.232257,73.9648943 C81.3189122,73.8698338 81.4699024,73.8133233 81.5963841,73.8133233 C81.7281176,73.8133233 81.8690418,73.87071 81.9613866,73.9648943 C82.1163156,74.1221601 82.2353572,74.3232326 82.2944403,74.5370091 C82.316323,74.615861 82.3255137,74.701284 82.3333914,74.7818882 C82.3373303,74.8221903 82.3382056,74.8624924 82.3351421,74.9027946 C82.327702,74.984713 82.3185112,75.070136 82.2966286,75.1503021 C82.273433,75.2317825 82.2375455,75.3101964 82.2007826,75.3859819 C82.1425748,75.5060121 82.0147802,75.5831118 81.8926751,75.6229758 C81.7596286,75.6659063 81.6152032,75.6343656 81.495724,75.5708459 C81.3836848,75.5117069 81.2913401,75.3820393 81.2585161,75.2624471 C81.2370711,75.1941088 81.2340076,75.1248943 81.2493254,75.0565559 C81.251076,75.0079305 81.2655186,74.9623716 81.2847753,74.919003 C81.2917778,74.8997281 81.2957166,74.8804532 81.3005308,74.8607402 L81.3005308,74.8383988 C81.2961543,74.8204381 81.2917778,74.8029154 81.2860883,74.7853927 L81.2860883,74.7853927 Z M94.1329489,33.9212387 C93.7303083,34.7811631 93.4782203,35.7348338 92.9162741,36.4405589 C91.1634746,38.6409668 89.29601,40.7498187 87.4666213,42.8893353 C87.0499758,43.3769033 86.6083841,43.8438822 86.0490638,44.4633082 C88.6867973,44.4470997 94.3557142,37.350861 94.8082472,33.7013293 C96.1177044,33.7898187 97.4394159,33.8791843 98.761565,33.9689879 C98.8263377,34.0596677 98.8906726,34.1507855 98.9554452,34.2419033 C97.4127191,35.7957251 95.8568633,37.3368429 94.3316433,38.9073112 C92.8147386,40.4677039 91.3284697,42.0578852 89.8982203,43.7781722 C96.2192399,43.091284 102.465421,42.0456193 108.773748,42.9160574 C108.78469,43.018565 108.795631,43.1215106 108.806572,43.2240181 C108.685343,43.2603776 108.559299,43.3387915 108.442883,43.3269637 C102.101294,42.6773112 96.0555577,44.0607251 90.107856,46.043852 C89.1393303,46.3667069 88.3200443,46.4039426 87.391345,45.9216314 C86.2700785,45.338565 85.0669709,44.9136405 83.7478853,44.3559819 C84.557543,43.3659517 85.3291249,42.4464502 86.0731347,41.5050453 C87.2569856,40.0090483 88.4408364,38.5130514 89.5839856,36.9863897 C90.0098218,36.4182175 90.3673841,35.7865257 90.6741787,35.1443202 C91.5009049,33.4148338 92.0182105,33.1905438 94.1329489,33.9212387 L94.1329489,33.9212387 Z M100.208883,34.2362085 C100.866237,34.2975378 101.512651,34.4775831 102.16344,34.6107553 L102.304802,34.905136 C99.7112716,37.113429 97.1168658,39.3217221 94.5228976,41.5300151 C94.5872325,41.6277039 94.6515675,41.7249547 94.7159024,41.8222054 C95.1329856,41.5987915 95.6003988,41.4367069 95.9583988,41.1418882 C97.9829807,39.4767976 100.103409,37.9006344 101.942863,36.0476133 C103.054939,34.9279154 103.980575,34.7526888 105.484788,35.6467825 C103.455391,37.4393505 101.4737,39.189864 99.4924452,40.9403776 C99.5471518,41.0380665 99.6027337,41.1361934 99.657878,41.2338822 C100.10691,41.015287 100.625091,40.8772961 100.992719,40.5632024 C102.442663,39.3269789 103.952565,38.1323716 105.225259,36.7274924 C105.980211,35.89429 106.584609,35.6603625 107.534316,36.1566918 C107.808286,36.3003776 108.107641,36.3945619 108.656895,36.6179758 C107.005631,38.0657855 105.437521,39.2936858 104.054976,40.7033837 C103.118836,41.6592447 102.102169,41.9877946 100.829475,42.0749698 C97.8289269,42.2812991 94.8358193,42.5980211 91.6855944,42.8840785 C92.0794819,42.4630967 92.4212888,42.0986254 92.7617826,41.7328399 C94.9798071,39.3501964 97.1912667,36.9627341 99.424609,34.595423 C99.6119244,34.3969789 99.9572325,34.2129909 100.208883,34.2362085 L100.208883,34.2362085 Z M102.826047,29.8253172 C104.054976,30.9209215 105.284343,32.0165257 106.681768,33.2623867 C105.161362,33.1682024 103.868098,32.0371148 102.826047,29.8253172 L102.826047,29.8253172 Z M107.218768,31.1561631 C107.00957,30.8065861 106.862519,30.4933686 107.452912,30.4000604 C106.465567,30.0062387 105.926379,29.2348036 105.603829,28.2491541 C107.470856,28.1970242 108.119895,28.6653172 108.586871,30.4627039 C108.172851,30.4324773 107.795157,30.4048792 107.4179,30.3768429 C109.396528,31.3515408 109.396528,31.3515408 109.80267,32.4887613 C109.495438,32.5422054 109.200898,32.5934592 108.906357,32.644713 C109.997863,33.159003 111.037726,33.7219184 111.246487,35.2135347 C110.139663,34.9248489 109.145316,34.6370393 108.59256,33.5208459 C108.188169,32.7056042 107.685306,31.939426 107.218768,31.1561631 L107.218768,31.1561631 Z M104.434858,26.6764955 C104.486939,26.5437613 104.539457,26.4110272 104.591976,26.2791692 C105.566629,26.2791692 106.542594,26.3199094 107.514621,26.2686556 C108.898042,26.1963746 110.276648,26.0369184 111.660069,25.9593807 C111.954171,25.9431722 112.419396,26.0242145 112.534499,26.2195921 C114.704819,29.9107402 117.058078,33.5129607 118.310641,37.6680211 C118.321144,37.7030665 118.303638,37.746435 118.280443,37.9553927 C116.031345,37.4533686 113.841768,36.8466465 111.949795,35.5206193 C111.502951,35.2074018 111.374719,34.4390332 110.963763,33.6018882 C112.842607,33.9851964 114.439164,34.3111178 116.036159,34.6366012 C116.063731,34.5441692 116.090428,34.4521752 116.118,34.3597432 C115.564807,34.1858308 115.017303,33.9913293 114.457545,33.8423867 C113.499523,33.586994 112.543252,33.3000604 111.567724,33.1384139 C110.636399,32.9833384 110.226756,32.4252417 109.902455,31.3423414 C111.238609,31.6345317 112.401453,31.8881722 113.563858,32.1422508 L113.601497,32.0112689 C112.599709,31.7300302 111.608863,31.3935952 110.592196,31.181571 C109.371144,30.9266163 108.910296,30.0364653 108.339159,28.8580665 C109.912083,29.1616465 111.253927,29.4201057 112.595333,29.679003 C112.610651,29.5891994 112.625968,29.4998338 112.641724,29.4100302 C110.39,28.7927946 108.130836,28.2031571 105.893993,27.5381722 C105.367934,27.3817825 104.918902,26.9704381 104.434858,26.6764955 L104.434858,26.6764955 Z M119.115047,40.5439275 C118.135142,39.8311934 117.186311,39.1403625 116.179709,38.4074773 C118.713281,38.4661782 118.903223,38.6050453 119.115047,40.5439275 L119.115047,40.5439275 Z M49.2989196,50.6352266 C46.9911763,46.4933082 43.3315235,43.6340483 40.0504403,40.4326586 C40.115213,40.3792145 40.1852374,40.2929154 40.209746,40.3043051 C43.0921274,41.6666918 45.9259293,43.1696979 48.1400149,45.4870695 C49.4389685,46.8472659 49.5527582,48.7616163 49.2989196,50.6352266 L49.2989196,50.6352266 Z M27.5178144,50.4744562 C30.7065528,48.9714502 33.9180491,47.5586858 37.5606335,47.804003 C34.2125895,48.6941541 30.8654208,49.5843051 27.5178144,50.4744562 L27.5178144,50.4744562 Z M24.2214134,49.5312991 C23.5237949,49.9242447 22.8349293,50.3355891 22.1460638,50.7447432 C24.0397875,49.5146526 25.9326359,48.2806193 27.8381763,47.0698036 C28.0416848,46.940136 28.3541689,46.9821903 28.6535235,47.0759366 C27.1755699,47.8929305 25.6928022,48.7016012 24.2214134,49.5312991 L24.2214134,49.5312991 Z M18.5061054,51.837719 C19.2019733,49.4156495 22.0130174,47.5284592 25.076587,47.4421601 C22.8791323,48.9127492 20.6926188,50.3750151 18.5061054,51.837719 L18.5061054,51.837719 Z M14.4726971,55.4543958 C15.2320247,53.0121752 16.0438707,50.6080665 18.9328169,49.4870544 C17.3616433,51.5893353 15.917389,53.5216465 14.4726971,55.4543958 L14.4726971,55.4543958 Z M65.109565,27.1982326 C65.2631812,27.0611178 65.5485308,26.9787613 65.7542276,27.0081118 C67.3324037,27.2288973 68.9062032,27.4834139 70.4813156,27.7269789 C70.4996971,27.7756042 70.5176408,27.8233535 70.5364599,27.8711027 L63.4618022,29.2851813 C63.4022814,29.1761027 63.3427606,29.0670242 63.2832399,28.9579456 C63.8885137,28.367432 64.4810956,27.7620242 65.109565,27.1982326 L65.109565,27.1982326 Z M95.1124159,14.6174018 L95.1329856,14.4430514 C96.4857704,14.3335347 97.8381176,14.2244562 99.1913401,14.1140634 C99.3095064,14.104864 99.4285479,14.0969789 99.5454012,14.0763897 C100.270592,13.9497885 101.197978,13.478429 101.677208,13.7631722 C102.620788,14.3243353 103.314905,15.3056042 104.038345,16.3591541 L95.1124159,14.6174018 Z M177.884379,49.4905589 C175.148174,47.8504381 172.325751,46.3237764 169.138325,45.8567976 C167.435418,45.6070997 166.494027,44.4795166 165.353066,43.4789728 C169.612303,43.9463897 173.620766,45.3210423 177.677807,46.6737915 C177.429658,46.2274018 177.139056,45.8405891 176.753484,45.6745619 C173.01768,44.0672961 169.18778,42.735574 165.080409,42.6054683 C163.084274,42.5423867 162.045724,41.0805589 160.632105,40.119003 C165.736012,40.1430967 170.768144,40.4392296 175.838352,41.859003 C175.584076,40.7690937 174.866763,40.5662689 174.204594,40.4059366 C169.975118,39.380861 165.670365,38.7539879 161.340228,39.2021299 C159.105135,39.4329909 157.599171,38.4346375 155.981169,37.2588671 C161.754685,36.5741692 167.537829,36.7892598 173.359924,36.8475227 C172.871504,36.4646526 172.351572,36.1834139 171.818511,36.1558157 C169.083181,36.0138822 166.341724,35.8097432 163.608144,35.874139 C161.040435,35.9345921 158.433338,36.0822205 155.933465,36.6131571 C154.298394,36.9605438 153.205137,36.1930514 151.885176,35.7803927 C152.270311,35.5499698 152.64144,35.4124169 153.023511,35.3287462 C155.775034,34.7255287 158.510365,34.0228701 161.285959,33.5646526 C165.008196,32.9504834 168.70111,31.8215861 172.625105,32.4418882 C172.265792,32.0905589 171.858775,31.7576284 171.399678,31.6555589 C170.787839,31.5193202 170.132235,31.4991692 169.502015,31.5390332 C163.732438,31.9105136 158.0377,32.8208157 152.625247,34.8578248 C150.642242,35.60429 148.910012,35.3804381 147.014538,34.9261631 C152.899656,32.3792447 159.044301,30.7150302 165.319805,29.4135347 C164.7688,29.2851813 164.220858,29.2019486 163.705741,29.2974471 C157.833316,30.3864804 152.078181,31.8575076 146.726125,34.6177644 C146.415391,34.7776586 146.063081,34.9441239 145.726088,34.9511329 C144.1501,34.9866163 142.572362,34.9673414 140.788489,34.9673414 C143.768905,32.8961631 146.873176,31.3353323 149.996704,29.8332024 C153.134237,28.3240634 156.344858,26.9673716 159.523531,25.5440937 C159.503836,25.4350151 159.484142,25.3259366 159.46401,25.2172961 C158.570761,25.3785045 157.624993,25.4030363 156.79214,25.7228248 C151.210753,27.8680363 145.800927,30.4158308 141.0327,34.0425831 C139.134599,35.4864502 137.08157,35.3633535 135.00622,35.7383384 C140.456311,31.1241843 146.569008,27.7011329 153.265096,25.3206798 C152.453687,24.8374924 152.35434,24.7568882 150.966105,25.2913293 C145.363712,27.4483686 140.097873,30.22571 135.678017,34.351858 C134.39088,35.5534743 133.123,36.5189728 131.380267,36.902281 C130.291824,37.1414653 129.263778,37.6566314 128.209034,38.0482628 C130.054616,35.2586556 132.545299,33.2238369 135.145832,31.3475982 C137.72492,29.4866918 140.432678,27.8036405 143.083103,26.0421752 C142.051555,26.2099547 141.035763,26.4995166 140.136824,26.9993505 C136.502555,29.0183988 133.204841,31.5223867 130.253748,34.4385952 C129.087404,35.5902719 128.233543,37.060423 127.234382,38.3825076 C127.118404,38.5362689 127.004614,38.7145619 126.847059,38.8118127 C125.198858,39.822432 123.541905,40.8190332 121.887577,41.819139 C122.16111,41.11429 122.523487,40.4707704 122.984335,39.9091692 C126.455797,35.6796375 130.406489,31.9442447 134.688922,28.5470393 C135.592237,27.8308006 136.373885,26.9608006 137.21199,26.1617674 C137.131462,26.0509366 137.050059,25.9401057 136.969531,25.8292749 C132.029744,27.5745317 127.426074,30.0040483 123.049545,32.9272659 C124.787027,29.5309366 127.598509,27.2678852 130.828387,25.4599849 C133.98824,23.6919486 137.15991,21.9366163 140.81256,21.1945317 C140.180152,20.9846979 139.560435,20.8848187 138.983609,21.0009063 C135.982624,21.6058761 133.325196,23.0580665 130.663829,24.4874773 C129.875616,24.9106495 129.107098,25.3701813 128.328951,25.8135045 L128.184088,25.5953474 C130.060306,23.9574169 131.563206,21.7662085 134.135291,21.1077946 C137.20455,20.3214653 140.323264,19.7164955 143.438915,19.1299245 C145.129567,18.8114502 146.858296,18.6931722 148.569956,18.4846526 C148.564267,18.3891541 148.557702,18.2936556 148.551137,18.197719 C146.383443,17.6751057 144.223626,18.2511631 142.083942,18.5227644 C139.888675,18.8013746 137.723169,19.317855 135.544971,19.7300755 C136.712629,18.8337915 138.008956,18.2318882 139.205061,17.472281 C140.893964,16.3990181 142.63801,16.3105287 144.558868,16.6430211 C147.52878,17.1577492 150.529766,17.499003 153.521998,17.8779305 C154.051558,17.9445166 154.602563,17.8385045 155.143939,17.8117825 C155.150942,17.6523263 155.158819,17.4928701 155.166259,17.3334139 C151.645343,16.3670393 147.955929,16.2040785 144.424509,15.2372659 C149.670653,13.9475982 154.560548,15.3608006 159.429435,17.1634441 C156.67266,14.618716 153.018697,14.5210272 149.610257,13.5796224 C150.893455,13.2773565 152.191971,12.9606344 153.446284,13.0872356 C156.819712,13.4298036 159.818071,14.9621601 162.836563,16.3863142 C163.209443,16.5619789 163.578384,16.7459668 163.949514,16.925574 C164.006846,16.8094864 164.064616,16.6938369 164.121949,16.5777492 C161.95688,14.8320544 159.231179,14.1083686 156.79389,12.7906647 C157.347959,12.7118127 157.891523,12.6815861 158.400076,12.8003021 C160.176946,13.2151511 161.938937,13.6913293 163.713181,14.1201964 C164.073369,14.2069335 164.459817,14.1867825 164.83401,14.2156949 C164.863333,14.0671903 164.892218,13.9186858 164.921541,13.7701813 C162.532394,12.6596828 159.979127,12.0599698 157.367215,11.5036254 C158.835103,11.2762689 160.30299,11.0493505 161.770878,10.8215559 C161.755122,10.6800604 161.738929,10.538565 161.722736,10.3970695 C158.028509,10.1675227 154.369731,11.6433686 150.562589,10.6270544 C153.395954,9.37900302 156.22888,8.13138973 159.062682,6.88333837 C159.051741,6.78608761 159.040362,6.68971299 159.029421,6.59246224 C158.567259,6.63188822 158.051267,6.55040785 157.651252,6.72913897 C154.757929,8.01880665 151.907934,9.40747734 149.004108,10.6734894 C146.353682,11.8286707 143.653365,12.8690785 140.975367,13.9603021 L140.834443,13.6597885 C144.618389,10.3309215 148.740203,7.4681571 153.188069,4.96767372 C152.688707,4.14279456 152.098751,4.32327795 151.583196,4.61722054 C149.859281,5.60067976 148.190074,6.68401813 146.446902,7.63111782 C142.113702,9.98441088 139.126722,13.9892145 135.118259,16.7713746 C131.975037,18.9533837 129.201193,21.6663293 126.320125,24.0958459 C126.43479,23.7107855 126.500438,23.1084441 126.776159,22.6274471 C128.179274,20.1830363 129.391135,17.5730363 131.129929,15.3888369 C134.14667,11.6004381 137.506093,8.08495468 140.709274,4.44418429 C141.111915,3.9868429 141.439279,3.46291541 141.801218,2.97009063 C141.683927,2.84743202 141.566198,2.72564955 141.448907,2.603429 C140.893964,2.91883686 140.244487,3.13655589 139.800707,3.56717523 C137.833457,5.47583082 135.866208,7.39061934 134.008372,9.40484894 C130.622252,13.076284 127.592819,17.011435 125.799318,21.7473716 C125.441318,22.6935952 124.660108,23.6433233 125.466264,24.7630211 C125.551169,24.880423 125.404993,25.23 125.283763,25.4196828 C124.741949,26.264713 124.170812,27.0909063 123.610616,27.9241088 C123.514333,27.4347885 123.627247,27.0633082 123.745413,26.6927039 C124.842609,23.2477492 125.958186,19.8076133 127.018181,16.3508308 C127.165233,15.871148 127.038313,15.3069184 127.038313,14.7816767 C126.902641,14.7558308 126.767844,14.7295468 126.632609,14.7037009 C126.412907,15.1382628 126.141125,15.5539879 125.982257,16.009577 C123.987435,21.7118882 122.011871,27.4203323 120.025365,33.1243958 C119.745704,33.9278097 119.3028,34.6698943 119.74658,35.5981571 C119.932144,35.9858459 119.777215,36.5360574 119.777215,37.0126737 C119.092726,35.722568 118.620937,34.4276435 118.220047,33.1112538 C118.145208,32.8663746 118.329022,32.5220544 118.441061,32.2434441 C119.032768,30.7706647 119.818792,29.3500151 120.20524,27.8272961 C121.103303,24.2881571 121.912961,20.7187915 122.565939,17.1266465 C123.155457,13.8858308 123.496389,10.5990181 123.928352,7.33016616 C124.01457,6.67481873 124.068401,5.98661631 123.118695,5.56169184 C121.824993,14.4886103 120.592563,23.3349245 117.801651,32.1514502 C117.192,30.9069033 116.82656,29.8756949 116.227413,29.0056949 C115.36655,27.7550151 115.471587,26.8210574 116.377966,25.5585498 C119.055526,21.8275378 120.24244,17.485861 120.937433,13.0083837 C121.315127,10.5766767 121.605729,8.1291994 121.846876,5.67996979 C121.90202,5.12055891 121.589098,4.52435045 121.445986,3.94522659 C121.327819,3.97413897 121.210091,4.00217523 121.092362,4.03064955 C120.428005,11.8562689 119.041521,19.4786254 114.927147,26.5538369 C114.328,25.3868278 113.827325,24.4116918 113.542413,23.8570997 C114.444854,21.9466918 115.419506,20.4485045 115.867663,18.8061934 C116.629179,16.0187764 117.128103,13.1516314 117.601206,10.295 C117.891807,8.53791541 117.959206,6.7405287 118.059428,4.95759819 C118.094878,4.32459215 118.038858,3.6210574 117.244081,3.31134441 C116.656313,10.018142 115.875541,16.5856344 113.134083,23.0046224 C112.317423,21.8647734 111.664445,21.0158006 111.095059,20.1138218 C110.943631,19.8737613 110.927876,19.4129154 111.05392,19.1527039 C112.742384,15.6678852 113.568673,11.9434441 113.956871,8.13577039 C114.17701,5.97873112 114.081164,3.78314199 114.018142,1.60814199 C114.005888,1.17664653 113.498211,0.759607251 113.219426,0.335996979 C113.12533,0.396450151 113.03211,0.456465257 112.938453,0.516918429 C113.353347,6.77338369 111.996624,12.7297734 110.075766,18.8412387 C109.364142,18.1022205 108.819702,17.6251662 108.394741,17.0583082 C108.173726,16.7626133 108.00523,16.2715408 108.08357,15.9307251 C109.016646,11.8619637 109.12956,7.73625378 109.003078,3.59345921 C108.985135,3.00382175 108.866968,2.40892749 108.720355,1.83593656 C108.674839,1.6589577 108.380736,1.54637462 108.041118,1.27783988 C108.26257,6.28800604 107.871308,11.0112387 107.17544,15.9478097 C106.647193,15.4786405 106.295758,15.1737462 105.950888,14.8600906 C104.657186,13.682568 103.398059,12.463429 102.059279,11.3402266 C101.494269,10.8671148 100.795775,10.5008912 100.099032,10.2533837 C99.3480198,9.98616314 98.1169024,10.6975831 98.046878,9.1455136 C98.0442521,9.09338369 97.8433694,9.01146526 97.7330809,9.00839879 C96.7085357,8.97861027 96.2332447,8.19534743 95.7076237,7.51108761 C94.9815577,6.56530211 94.3233279,5.56563444 93.5806311,4.63299094 C93.3482374,4.34036254 92.9368438,4.19054381 92.6068535,3.97457704 L92.2597949,4.33861027 C93.0900222,5.69749245 93.919812,7.05637462 94.8712692,8.61370091 C94.2795626,8.38590634 93.8847998,8.24309668 93.497477,8.08232628 C92.5442692,7.6876284 91.601565,7.26401813 90.6396042,6.8934139 C90.0321421,6.65861027 89.4894526,6.69453172 89.2999489,7.41777946 C90.6299758,8.00566465 91.8689709,8.6294713 93.1626726,9.10389728 C94.4292399,9.56780967 95.7518267,9.87971299 97.0499049,10.2582024 L96.9855699,10.6003323 C94.1097533,10.907855 91.2339367,11.2136254 88.2618364,10.1259063 C88.4329587,11.5049396 89.4557533,11.5592598 90.2741641,11.698565 C92.7753499,12.1234894 95.2568413,11.9854985 97.6941298,11.2237009 C97.9733523,11.1369637 98.3755553,11.0830816 98.5904428,11.2197583 C99.4088535,11.7393051 100.173871,12.3433988 100.95902,12.9159517 L100.848731,13.2072659 C96.7312936,13.9086103 92.5683401,13.2655287 88.3988218,13.4578399 C88.7957729,13.7763142 89.2141689,13.9458459 89.6465699,13.9940332 C90.9275797,14.1364048 92.1381274,14.4964955 93.3797484,14.8316163 C96.8516482,15.7686405 100.436025,16.325423 104.000707,16.8624924 C105.064641,17.0232628 105.702301,17.4271601 106.350902,18.3970393 C101.292511,18.665136 96.4704526,18.3891541 91.6623988,17.155997 C92.0786066,17.6015106 92.5442692,17.9953323 93.0760174,18.1346375 C97.3440076,19.2495166 101.664516,19.6648036 106.057675,19.0068278 C106.464692,18.9459366 107.038017,18.8740937 107.287042,19.0909366 C108.010482,19.7221903 108.608316,20.4971299 109.442482,21.4240785 C104.501382,22.2283686 99.9029636,21.5362236 95.2739098,21.3386556 C95.6157166,21.6742145 95.9754672,21.9068278 96.3662912,21.9826133 C97.2219024,22.1486405 98.089768,22.2980211 98.9580711,22.343142 C102.084663,22.5069789 105.220883,22.9516163 108.332157,22.1836858 C109.921274,21.7911782 109.949722,21.7981873 110.75369,23.6555891 C106.049797,23.5119033 101.479827,23.3730363 96.9089807,23.2332931 C97.2525381,23.5530816 97.6306702,23.793142 98.0324355,23.8426435 C102.063218,24.340287 106.10144,24.6307251 110.152355,24.0748187 C111.386973,23.9057251 111.526147,23.9955287 111.822876,25.3907704 L99.2276653,25.3907704 C99.2145357,25.493716 99.2009685,25.5957855 99.1878389,25.6982931 C100.022443,25.8121903 100.859235,25.909003 101.6899,26.0448036 C102.472861,26.1731571 103.447514,25.7854683 103.995455,26.5888822 C103.962193,26.6944562 103.929807,26.7995921 103.897421,26.9047281 C103.314905,26.8083535 102.731951,26.7115408 102.148998,26.6147281 C102.121863,26.7150453 102.094729,26.8149245 102.067157,26.9148036 C102.530193,27.0803927 103.001108,27.2258308 103.453203,27.4159517 C103.882541,27.596435 104.462868,27.7116465 104.681695,28.0485196 C105.92813,29.9650604 107.085722,31.9385498 108.273949,33.8927644 C108.205237,33.9689879 108.136088,34.0452115 108.067377,34.120997 C107.717255,33.8125982 107.340435,33.527855 107.021387,33.1896677 C106.369284,32.4983988 105.850228,31.6345317 105.096152,31.0935196 C102.137619,28.9688973 99.1130002,26.9353927 96.0988853,24.8883082 C95.7793988,24.6714653 95.3771958,24.5523112 94.9960002,24.4572508 C94.7329709,24.3915408 94.4397435,24.4449849 94.1592081,24.4449849 C98.2967778,26.2270393 101.117888,29.5353172 104.134629,32.6228097 C103.556489,32.4856949 103.043998,32.2443202 102.620788,31.8951813 C99.7830467,29.5532779 96.6984697,27.602568 93.372746,26.0426133 C92.443609,25.6071752 91.4527631,25.2803776 90.4614795,25.0100906 C90.0667166,24.9023263 89.5936139,25.0832477 89.1559611,25.1327492 C89.1739049,25.23 89.191411,25.3272508 89.2093548,25.4240634 C93.7421249,26.5923867 97.4612985,29.2553927 101.16603,31.972719 C99.9922447,31.7230211 98.9134306,31.2726888 97.8354917,30.8201662 C94.9487337,29.6089124 92.0873597,28.3288822 89.161213,27.220136 C88.0749587,26.8083535 86.8412154,26.752281 85.6652423,26.6287462 C85.2879856,26.5897583 84.8783425,26.8556647 84.4835797,26.9818278 C88.9559538,27.4391692 92.8169269,29.2812387 96.6573303,31.1824471 C95.224455,30.7719789 93.8524134,30.1560574 92.4177875,29.7810725 C90.9652178,29.4012689 89.4566286,29.2155287 87.9620443,29.0275982 C86.4263205,28.8348489 84.8805308,28.7029909 83.3347411,28.618006 C81.9093059,28.5400302 80.4414183,28.1913293 79.0798804,28.8344109 L79.084257,29.1590181 L88.0123743,29.9076737 C88.0145626,29.9961631 88.0167509,30.0850906 88.0185015,30.1735801 C87.6491225,30.2086254 87.2806188,30.2559366 86.9112399,30.2769637 C84.6503254,30.4044411 82.3832839,30.463142 80.1302472,30.673852 C78.8391714,30.7943202 77.4575015,30.8714199 76.523988,31.9420544 C80.2978682,31.6340937 84.0599318,31.3278852 87.8219954,31.0212387 C87.8294355,31.1250604 87.8373132,31.2284441 87.8447533,31.3322659 C86.674032,31.6743958 85.4682985,31.9284743 84.3387166,32.3753021 C81.3849978,33.5423112 78.4422203,34.7452417 75.5410198,36.0353474 C74.3567313,36.5623414 73.2914844,37.3556798 72.1671543,38.0184743 C71.974587,38.1323716 71.7627631,38.2291843 71.5478756,38.2878852 C71.0463254,38.4241239 70.4541812,38.405287 70.0445381,38.6733837 C68.1197411,39.9350151 66.2514012,41.2829456 64.3441103,42.5730514 C64.0228731,42.7903323 63.6766897,43.3974924 63.206213,42.7294411 L70.1762716,36.5421903 C68.9053279,37.2395921 67.6724599,38.0075227 66.4662888,38.8153172 C65.2811249,39.6090937 64.0613866,40.369577 62.9703181,41.2811934 C61.9063841,42.1717825 60.9864379,43.2349698 60.0034697,44.2223716 C59.9172521,44.1413293 59.8310345,44.0598489 59.7443792,43.9792447 C60.3855406,42.9808912 61.1120443,42.0272205 61.645543,40.9745468 C62.3409733,39.6029607 63.1782032,38.4902719 64.7997068,38.220861 C64.8264037,38.2169184 64.8347191,38.1060876 64.8596653,38.016284 C64.37212,38.0596526 63.8950785,38.1025831 63.4184746,38.1450755 C63.3917778,38.0022659 63.3663939,37.8598943 63.3401347,37.7170846 C64.6522178,37.5453625 65.964301,37.3745166 67.2763841,37.2027946 C67.2610663,37.1051057 67.2457484,37.007855 67.2299929,36.9106042 L56.6869367,36.9106042 C56.9123279,35.9490483 57.234878,35.5889577 58.2077802,35.7598036 C61.5291274,36.342432 64.8596653,36.0305287 68.1761983,35.5981571 C68.5350736,35.551284 68.8742545,35.3488973 69.481279,35.1219789 C65.3669049,35.2437613 61.5943377,35.3550302 57.8222081,35.4667372 C58.1325039,34.588852 58.1740809,33.6982628 59.2305748,34.008852 C62.6919709,35.0264804 66.164746,34.4364048 69.6318315,34.0456495 C70.0051494,34.0035952 70.3543963,33.7517069 70.7150222,33.5975076 L70.6362447,33.3412387 C66.7752716,33.7131571 62.9142985,34.2695015 58.9049611,33.5926888 C59.7995235,32.0866163 60.6494452,31.1530967 62.4937142,31.5289577 C65.6242447,32.1676586 68.7486482,31.590287 71.8354134,30.990574 C72.492768,30.8630967 73.101543,30.4824169 73.7317631,30.2187009 C73.6893108,30.107432 73.6459831,29.9961631 73.6030932,29.8848943 C69.6379587,30.9117221 65.6281836,31.3475982 61.4061469,31.0054683 C61.9378951,30.1087462 62.509032,29.6768127 63.4084086,29.6956495 C64.0014281,29.7083535 64.6106408,29.679003 65.1887802,29.5554683 C68.8549978,28.7713293 72.5146506,27.9578399 76.1738658,27.1430363 C76.2880932,27.1180665 76.3760614,26.9761329 76.4771592,26.8885196 C72.9628071,26.6870091 69.4909073,27.2104985 65.7944917,26.5823112 C67.1070125,25.3456495 68.079477,24.6942447 69.7994526,25.1463293 C71.4677851,25.5848338 73.3317484,25.3693051 75.1029293,25.289577 C76.154609,25.2413897 76.367746,24.9194109 76.4605284,24.0984743 C74.0945773,24.9601511 71.7071812,24.7253474 69.2725186,24.2439124 C71.4441518,23.4418127 73.6153474,22.639713 75.7874183,21.8371752 C75.7537191,21.7184592 75.7213328,21.5997432 75.6889465,21.4810272 C74.0210516,20.662719 72.8262594,22.6121148 71.2345161,22.5061027 C71.776768,21.2484139 72.9177289,20.3749094 72.933922,18.9209668 C72.5422227,19.0707855 72.2603743,19.3025227 72.0135381,19.5658006 C70.8533205,20.8064048 70.3806555,22.725136 68.4352888,23.1947432 C68.3731421,23.2096375 68.2891127,23.3038218 68.2856115,23.364713 C68.2374697,24.1895921 67.7267289,24.0975982 67.110076,24.0892749 C66.6325968,24.0827039 66.0745895,24.2894713 65.6855161,24.5794713 C64.699922,25.3127946 63.7786628,26.1346073 62.8525895,26.9445921 C62.1799171,27.5333535 61.5400687,28.1597885 60.8857778,28.769139 C60.7501054,28.7319033 60.6148707,28.6942296 60.4787606,28.6565559 L59.7338756,16.7928399 C59.4283939,17.1533686 59.1850589,17.5765408 59.2016897,17.9891994 C59.3356115,21.2817069 59.2852814,24.6088218 59.7811421,27.8496375 C60.0428584,29.5576586 59.3776262,30.2922961 58.1784575,31.2775076 C56.5998438,26.1898036 55.4755137,21.1783233 55.7766188,15.8720242 C54.9008756,16.4020846 54.664543,16.8239426 54.6908022,18.2323263 C54.7774575,22.8013595 55.4159929,27.2652568 57.3232839,31.478142 C57.4506408,31.7593807 57.5114746,32.2149698 57.3701127,32.4488973 C56.9026995,33.2207704 56.3289367,33.9286858 55.6370076,34.8797281 C53.3205112,29.4779305 52.7034208,23.9525982 51.9799807,18.3939728 C51.7125748,18.8999396 51.4591738,19.4444562 51.5239465,19.9473565 C51.9637875,23.3725982 52.3147851,26.8219335 53.023345,30.1941692 C53.3704037,31.8456798 54.4303988,33.3447432 55.1477117,34.9222205 C55.2496848,35.1460725 55.3450932,35.4711178 55.2566873,35.6647432 C54.9398267,36.3647734 54.5428756,37.0284441 54.077213,37.8870544 C52.4014403,34.7864199 51.0889196,31.8053776 50.4245626,28.5982931 C49.7641445,25.4052266 49.2871029,22.1736103 48.7295333,18.9599547 C48.6398144,18.9472508 48.5492203,18.935423 48.4595015,18.9231571 C48.4039196,19.6284441 48.2699978,20.3381118 48.3115748,21.0377039 C48.3754721,22.1070242 48.5444061,23.1710876 48.6962716,24.2338369 C49.3921396,29.1134592 50.4153719,33.8787462 53.4789416,37.9343656 C53.623367,38.1249245 53.7415333,38.491148 53.6557533,38.6738218 C53.0697362,39.9153021 52.4259489,41.1296224 51.6836897,42.5813746 C49.3247411,35.1307402 48.3347704,27.6840483 46.9509122,20.2816012 C46.652433,20.7967674 46.4891885,21.3158761 46.5574623,21.803006 C47.0730174,25.4626133 47.4962276,29.1445619 48.2240443,32.763429 C48.8249416,35.7523565 49.781213,38.6716314 50.6271958,41.6079909 C50.8670296,42.4394411 51.6920051,43.0890937 51.1335601,44.139139 C50.7326702,44.8934894 50.5506066,45.7639275 50.2705088,46.5826737 C50.0700638,45.7188066 50.2779489,44.8453021 50.0368022,44.1220544 C48.336521,39.0304079 46.547834,33.9681118 44.7740271,28.901435 C44.6545479,28.5593051 44.4282814,28.2544109 44.2519073,27.9328701 C44.1079196,27.965287 43.9643694,27.998142 43.8208193,28.031435 C43.8759636,28.5623716 43.8453279,29.1204683 44.000257,29.6207402 C44.8444892,32.3564653 45.7368633,35.0764199 46.6051665,37.8042598 C46.6865699,38.0618429 46.7110785,38.3378248 46.7618462,38.6046073 C46.6506824,38.6435952 46.5395186,38.6825831 46.4287924,38.7211329 C46.0314037,37.9317372 45.221746,37.0704985 45.3429758,36.3713444 C45.4948413,35.4974018 45.337724,34.8162085 45.0576262,34.1100453 C42.5166139,27.7173414 37.9111934,22.9012387 32.9635284,18.3580514 C32.6295993,18.0509668 32.1197337,17.9361934 31.6921469,17.7320544 L31.468944,18.0211782 C31.7556066,18.4128097 32.0068193,18.8372961 32.3346213,19.1908157 C33.7692472,20.7345619 35.2581421,22.2283686 36.6673841,23.7953323 C39.5208804,26.9678097 42.1726188,30.2914199 43.9503645,34.22 C44.1543108,34.6712085 44.2921714,35.1522054 44.4602301,35.6204985 C44.1074819,35.5828248 43.9223548,35.4540332 43.7512325,35.3081571 C41.6990785,33.5580816 39.6679318,31.7821601 37.5882056,30.0653776 C36.7763597,29.395574 35.7942667,28.9285952 35.0016775,28.2399547 C34.0462814,27.4093807 33.3154012,26.2936254 32.299609,25.5607402 C29.405411,23.4711631 26.4258707,21.4981118 23.4502692,19.5250604 C23.0808902,19.2806193 22.5294477,19.3117221 22.0629098,19.2157855 C22.013455,19.3620997 21.9644379,19.508852 21.9149831,19.6556042 C25.4971714,21.8209668 29.017213,24.0686858 32.0330785,26.9901511 C31.0387313,26.7500906 30.0881494,26.4657855 29.1795822,26.0816012 C27.6552374,25.4367674 26.1589024,24.7253474 24.6490002,24.0463444 C22.5500174,23.1031873 20.4584746,22.1429456 18.3419856,21.2414048 C17.9358438,21.0688066 17.4299171,21.1336405 16.9695064,21.0889577 L16.9646922,21.3097432 C19.2820638,22.3374471 21.5994355,23.3651511 23.9168071,24.392855 C23.8717289,24.5667674 23.8257753,24.7406798 23.7802594,24.9145921 C20.7788364,24.6872356 17.7769758,24.4594411 14.7755528,24.2325227 C14.7672374,24.3613142 14.7584844,24.4901057 14.7501689,24.6188973 C15.9116995,24.7976284 17.0727924,24.9759215 18.4155112,25.1826888 C16.1261494,25.803429 13.9352594,26.0789728 11.9955822,27.1009819 C12.0301567,27.2411631 12.0647313,27.3809063 12.0993059,27.5210876 C14.2560589,27.0273867 16.412812,26.5332477 18.5691274,26.0386707 L18.6479049,26.3751057 C16.6622741,27.3279003 14.6762056,28.2802568 12.6901372,29.2326133 C12.7544721,29.3653474 12.8192447,29.4989577 12.8835797,29.6321299 C13.1868731,29.4954532 13.4849147,29.3447583 13.7952105,29.2247281 C16.0158609,28.3696224 18.2137533,27.444426 20.4707289,26.6979607 C21.9053548,26.2230967 23.3995015,26.2993202 25.0472643,27.1430363 C24.5535919,27.2148792 24.3264501,27.2284592 24.1089367,27.2827795 C22.0729758,27.7944411 20.0286995,28.275 18.0128707,28.8545619 C17.5108829,28.9991239 17.1025528,29.467855 16.6504575,29.7876435 C16.7073523,29.8730665 16.7638095,29.9580514 16.8202667,30.0434743 C19.8956531,28.4638066 23.2423841,28.0270544 26.6136237,27.780423 C27.4403499,27.7199698 28.2963988,28.0607855 29.1388804,28.2167372 C29.1235626,28.3315106 29.1082447,28.4458459 29.0929269,28.5601813 C26.1536506,29.1200302 23.1355968,29.3079607 20.2702839,30.3387311 C20.698746,30.5630211 21.1105773,30.6072659 21.5097166,30.5560121 C24.0708609,30.2270242 26.6350687,29.9142447 29.1874599,29.5230514 C31.4798853,29.171284 35.0178707,30.350997 36.6551298,32.1168429 C33.0956995,31.4755136 29.5756579,30.6002568 25.9356995,30.8972659 C26.3042032,31.1276888 26.6950271,31.1587915 27.0792863,31.2293202 C30.5901372,31.8745921 34.1119293,32.4694864 37.6061494,33.1971148 C39.8110443,33.6557704 41.1296922,35.4246828 42.5853254,36.9723716 C41.902587,36.75071 41.3143817,36.3586405 40.6767215,36.0817825 C38.4249978,35.1035801 36.1662716,34.1389577 33.8834746,33.2356647 C33.4615773,33.0687613 32.9166995,33.2120091 32.4287166,33.2120091 C32.4374697,33.3075076 32.4453474,33.4034441 32.4536628,33.4993807 C40.0766995,35.8193807 46.6016653,40.1479154 47.0371298,43.1736405 C39.2434086,38.5559819 36.8525112,37.4008006 35.3080345,37.5988066 C39.8526213,41.7293353 44.7661494,45.3740483 48.1133181,50.5625076 C46.3627068,49.3035045 44.3464403,48.6266918 42.946389,46.6707251 C40.1322814,42.7399547 36.1518291,40.0283233 31.8737729,37.8090785 C31.4825112,37.6066918 31.005032,37.5716465 30.5678169,37.4586254 C35.1973083,40.2320242 39.4499807,43.3458006 42.9617068,47.4272659 C41.3275112,47.0185498 39.7646531,46.498565 38.2105479,45.951858 C37.9978487,45.8773867 37.807032,45.6925227 37.6486017,45.5194864 C35.4975381,43.1736405 32.9416457,41.3530363 30.1397924,39.8990937 C27.9585308,38.7666918 25.7103083,37.759139 23.4542081,36.7813746 C22.9863572,36.5785498 22.3561372,36.7520242 21.8003181,36.7520242 C27.7699024,38.9988671 36.028411,43.7277946 37.0932203,45.9211934 C35.5837557,45.5216767 34.1521934,45.3946375 32.9775333,44.7765257 C30.9481372,43.7089577 29.1506971,42.2011329 27.1248022,41.1243656 C24.4284232,39.6910121 21.6191298,38.4653021 18.8299685,37.2128701 C18.117032,36.8926435 17.3082496,36.5588369 16.2907068,37.1362085 C22.0152056,39.0882326 27.1204257,41.8476133 32.0768438,44.9386103 C29.5760956,44.7866012 27.1650663,44.9556949 24.7658535,45.4388822 C24.3614623,45.5203625 23.8957998,45.4476435 23.487032,45.3398792 C20.4602252,44.5421601 17.4693059,43.5749094 14.4087998,42.9471601 C12.0130883,42.4556495 9.536411,42.3351813 7.08818117,42.1411178 C6.55643301,42.0990634 5.99404914,42.4468882 5.44567017,42.6151057 C11.4813401,42.6409517 17.1126188,44.2407704 22.7828487,45.629003 C21.5263474,46.3180816 20.3788218,46.5428097 18.9236262,46.2462387 C14.6525724,45.3744864 10.304054,45.5878248 5.9796066,45.997855 C5.59534743,46.0342145 5.23034499,46.2663897 4.85615183,46.4078852 C4.87584621,46.5160876 4.89554059,46.62429 4.91523496,46.7329305 C9.73423007,46.5870544 14.5545381,46.3820393 19.3625919,46.934003 C18.0544477,48.0274169 16.7629342,48.7475982 14.9453621,48.5640483 C11.4043132,48.20571 7.88777286,48.7204381 4.42418851,49.5032628 C3.8009709,49.6438822 3.00925697,49.6995166 2.81318851,50.7837311 C7.00415183,49.6241692 11.1539758,49.3319789 15.3887044,49.4301057 C14.3217068,50.1603625 13.568944,51.3510272 12.1395699,51.4014048 C8.70749658,51.5227492 5.5130687,52.6008308 2.35890489,53.827855 C1.92650391,53.9965106 1.56762861,54.3557251 1.17417873,54.6268882 C1.22757237,54.7407855 1.28096601,54.8546828 1.33479731,54.9685801 C4.6097533,53.7214048 7.91053081,52.581994 11.4047509,52.2240937 C10.5167533,53.2864048 9.53772396,54.025861 8.1424868,54.2505891 C5.55420807,54.6663142 3.26178264,55.8981571 1.04025697,57.2325076 C0.6328022,57.4769486 0.343513692,57.9185196 -4.37652812e-05,58.2689728 L0.240227628,58.5177946 C2.84688778,57.2763142 5.45398557,56.0352719 8.06064572,54.7937915 C7.41379487,56.5114502 6.77088289,58.0122659 5.20102225,58.915997 C4.33403203,59.4158308 3.67273863,60.2945921 2.96986822,61.0498187 C2.71821785,61.3196677 2.61536944,61.7283837 2.44468484,62.0735801 C2.51427164,62.1108157 2.58385844,62.1476133 2.65388289,62.1848489 C4.04649413,60.8851057 5.43866773,59.5853625 6.83171663,58.2851813 C6.91924719,58.3526435 7.0063401,58.4201057 7.09474597,58.4871299 C6.39581443,60.2450906 5.69688289,62.0026133 4.998389,63.760574 L5.34719829,63.9314199 C6.57175086,63.2944713 6.46102469,61.7266314 7.38184621,60.6660725 C7.31882421,61.7056042 7.26543056,62.5904985 7.21247457,63.4758308 L7.67157237,63.5717674 C7.83481687,63.2230665 8.08252836,62.8883837 8.14598802,62.5221601 C8.41164328,60.9946224 8.59545746,59.4530665 8.85979976,57.9250906 C9.20116895,55.9463444 10.0178291,54.9558761 11.9360614,54.1612236 C10.6813108,56.5627039 9.39767506,58.8787613 9.29657726,61.5899547 C9.54691467,61.4423263 9.65195134,61.2434441 9.73685599,61.0353625 C10.6743083,58.7149245 11.5977557,56.3883535 12.5505259,54.0740483 C12.9781127,53.037145 13.7969611,52.4256042 14.9352961,52.0116314 C12.5977924,56.899577 11.8157068,60.1933988 12.7754795,61.4248036 C13.0678315,60.5105589 13.2411421,59.6186556 13.6271518,58.8310121 C14.5243401,56.9985801 15.6512961,55.3321752 17.3887778,54.1472054 C18.717054,53.241284 19.9967509,52.26571 21.2943914,51.3155438 C20.7648315,51.8219486 20.2230174,52.3165257 19.7284697,52.8557855 C19.3958535,53.2180665 19.1568951,53.6666465 18.7520663,54.2571601 C19.1761518,54.2045921 19.276812,54.2238671 19.3214526,54.1818127 C22.3758315,51.323429 25.9221323,49.2496224 29.6885724,47.4780816 C31.2544941,46.7412538 32.7254452,47.0334441 34.269922,47.2958459 C34.0436555,47.4793958 33.8046971,47.5779607 33.5556726,47.6270242 C29.6806946,48.397145 26.1519,50.0013444 22.8533108,52.1325378 C22.3854599,52.4352417 22.0440907,52.9328852 21.644076,53.340287 C21.7176017,53.4073112 21.7920027,53.4752115 21.865966,53.5426737 C23.2975284,52.6774924 24.7290907,51.8127492 26.1610907,50.947568 C26.1912888,51.000136 26.2214868,51.0527039 26.2516848,51.1048338 C26.0831885,51.3799396 25.9142545,51.6550453 25.6118364,52.1487462 C26.1059465,51.969139 26.3571592,51.8880967 26.6009318,51.7869033 C30.5848853,50.1380211 34.7176408,49.0130665 38.9808169,48.4067825 C39.7086335,48.3038369 40.4911567,48.5868278 41.2487337,48.6919637 C41.2277264,48.7879003 41.2067191,48.884713 41.1857117,48.9810876 C35.1907435,49.7954532 29.9056482,51.6077341 29.2329758,53.1654985 C29.4728095,53.109864 29.6561861,53.0848943 29.8268707,53.0244411 C32.6322252,52.0361631 35.4292643,51.0246677 38.2416213,50.0569789 C41.4710614,48.9456042 44.379702,49.5729154 46.746966,51.5810121 C45.3132154,51.4141088 43.6370051,51.0325529 41.9721738,51.0750453 C40.2430076,51.11929 38.5099024,51.5047885 36.8043694,51.8666314 C35.2117509,52.2048187 33.4882741,52.2731571 32.2186433,53.5242749 C36.4555601,52.7125378 40.6110736,51.4513444 44.9823499,51.7501057 C44.9145137,51.9402266 44.8274208,52.0278399 44.7280736,52.0471148 C39.8014159,53.00429 35.7001714,55.6659819 31.6510076,58.4214199 C31.3183914,58.6470242 31.1266995,59.0798338 30.8693597,59.4158308 C30.94201,59.4819789 31.0142227,59.548565 31.0868731,59.614713 C31.2523059,59.5384894 31.4295553,59.4815408 31.5809831,59.3847281 C33.1197704,58.3999547 34.6060394,57.321435 36.2008462,56.4396073 C38.944054,54.9230211 41.6544379,53.2842145 44.799411,52.6937009 C46.4266042,52.3888066 48.0936237,51.9608157 49.5956482,53.1475378 C49.6407264,53.1834592 49.747076,53.1431571 49.9033181,53.1330816 C49.9925993,52.885136 50.0919465,52.6104683 50.2214917,52.2512538 C50.6271958,52.3747885 50.9978878,52.4878097 51.1103645,52.5219789 C50.8512741,53.7113293 50.507279,54.6785801 50.4512594,55.6620393 C50.2372472,59.4351057 50.0766286,63.2129909 49.9672154,66.9913142 C49.7291323,75.2602568 49.136988,83.5327039 50.1125161,91.7959517 C50.1562814,92.166994 50.1545308,92.6738369 49.9444575,92.9222205 C49.0065675,94.0300906 47.894054,94.9364502 46.3885284,95.1375227 C45.16879,95.3004834 44.9635308,95.1388369 45.0256775,93.9021752 C45.4979049,84.607281 45.9268046,75.3093202 46.5136971,66.0218731 C46.7574697,62.1646979 47.3535528,58.3303021 47.789455,54.4849547 C47.6082667,54.6286405 47.5167973,54.7981722 47.4594648,54.9786556 C47.3150394,55.4320544 47.1684257,55.8858912 47.0541983,56.3476133 C45.2882692,63.4802115 44.6541103,70.7801511 43.9884403,78.063006 C43.2129196,86.5487915 42.8641103,95.0652417 43.219922,103.583006 C43.4159905,108.268565 43.8637093,112.948429 44.3656971,117.612961 C44.6711787,120.45426 45.3088389,123.258761 45.7670614,126.085604 C45.862032,126.669985 46.1062423,127.278459 45.2445039,127.682795 C41.0552912,129.648837 36.7689196,131.327508 32.2015748,132.161586 C30.6474697,132.445015 29.0531005,132.503278 27.4819269,132.699094 C27.1900125,132.735453 26.9177924,132.936964 26.637257,133.062689 C26.8110051,133.349622 26.9313597,133.813973 27.1707557,133.88713 C27.7650883,134.068489 28.415878,134.14997 29.0404086,134.133323 C34.0103939,133.998837 38.7037826,132.705227 43.1358927,130.517085 C45.9876384,129.109139 48.8555773,127.799758 51.9130198,126.88639 C54.0680222,126.241994 56.1941396,126.201254 58.3907191,126.524109 C61.6599856,127.00423 64.2784623,128.813444 66.9529587,130.538988 C69.5219807,132.196193 72.0927533,133.852961 74.7011641,135.447085 C75.2631103,135.790529 75.9896139,135.864124 76.7196188,136.085785 C73.6289147,133.815287 70.6751958,131.626269 67.7009073,129.464849 C65.0211592,127.518082 62.2748878,125.700106 58.9434746,125.01716 C58.6751934,124.962402 58.3491421,124.541858 58.2834941,124.240906 C57.0134257,118.411118 55.7455455,112.580891 54.549878,106.736208 C53.9568584,103.834456 53.5100149,100.902477 52.9471934,97.7015257 C53.2828731,98.0164955 53.4111054,98.1032326 53.4951347,98.2210725 C55.5310956,101.082523 57.9110516,103.613671 60.4472496,106.052387 C67.4597606,112.79642 75.9515381,116.230423 85.4516677,116.772311 C96.9339269,117.427221 106.455501,113.282236 113.205858,103.604471 C113.969563,102.509305 114.785785,101.45006 115.577937,100.374169 C115.704418,100.414471 115.830462,100.454335 115.956506,100.494637 C113.962998,110.207009 111.968614,119.919819 109.967665,129.667236 C107.292294,130.038278 104.945599,131.002462 102.789722,132.381495 C100.849169,133.622538 98.9659489,134.957764 97.1024232,136.313142 C94.1500174,138.460106 91.4444477,140.965408 88.0561396,142.470166 C87.9821763,142.502583 87.9537289,142.638384 87.8574452,142.809754 C89.3971078,142.817991 90.6676139,142.225287 91.8343963,141.488897 C94.4878853,139.812855 97.0796653,138.039124 99.7060198,136.319713 C102.398898,134.556495 105.067704,132.773565 108.21968,131.852749 C113.700844,130.250302 118.732976,131.910136 123.527462,134.188082 C128.826125,136.70565 134.098091,139.188172 139.939443,140.101103 C141.890061,140.406435 143.890135,140.408187 145.870514,140.504124 C146.245144,140.522085 146.726125,140.437976 146.983902,140.206677 C147.253497,139.963988 147.313455,139.487372 147.465758,139.113263 C147.158088,139.019517 146.855233,138.867069 146.542311,138.843414 C145.476189,138.761934 144.391685,138.81932 143.340443,138.655921 C137.328844,137.722402 131.616162,135.833459 126.139374,133.190604 C124.605839,132.45071 124.604526,132.51423 124.863179,130.816284 C125.601499,125.985725 126.559521,121.172251 126.978355,116.312779 C127.538113,109.820196 127.859788,103.293006 127.943379,96.7763293 C128.05892,87.7828248 127.43614,78.8112236 126.519695,69.8588973 C125.779624,62.6194109 124.98791,55.3948187 123.307323,48.3003323 C123.140577,47.5967976 122.890678,46.9125378 122.679729,46.2190785 L122.38869,46.2909215 C122.523049,47.4185045 122.667037,48.5456495 122.790455,49.6745468 C123.29288,54.2554079 123.864017,58.830136 124.265783,63.4197583 C124.640851,67.695287 124.868431,71.98571 125.096885,76.2735045 C125.336719,80.8013595 125.492523,85.3340332 125.708724,89.8640785 C125.73936,90.5159215 125.489022,90.9171903 124.870181,90.8874018 C123.540592,90.823006 122.209252,90.710861 120.890167,90.5303776 C120.005233,90.4094713 119.708066,89.840423 119.789907,88.9117221 C120.009609,86.4169335 120.259509,83.9138218 120.267824,81.4129003 C120.283142,76.8000604 120.165413,72.1854683 120.046372,67.5735045 C119.895382,61.6867674 119.772401,55.7965257 119.458604,49.9172356 C119.35313,47.9336707 119.687497,45.7770695 118.061616,43.8863746 C118.714594,43.7917523 119.158812,43.7273565 119.626225,43.6594562 C119.725572,44.0366314 119.808289,44.3485347 119.920766,44.7734592 C120.299773,44.6091843 120.568054,44.4501662 120.85778,44.3748187 C121.714704,44.1505287 122.584758,43.7716012 123.441245,43.7926284 C125.805008,43.8504532 128.085179,44.4317674 130.217861,45.463852 C134.18956,47.3865257 138.149005,49.3372356 141.674736,52.0427341 C141.841044,52.1702115 142.067748,52.2205891 142.366665,52.3506949 C142.430125,51.1407553 141.535125,50.7408006 140.869017,50.315 C136.08591,47.2559819 131.283545,44.2179909 125.576115,43.0549245 C128.175773,42.353142 130.714597,43.1053021 133.243792,43.5451208 C135.822443,43.9932628 138.365643,44.6486103 140.924162,45.2132779 C140.835318,44.8216465 140.657193,44.5211329 140.412108,44.4479758 C134.827658,42.7841994 129.253274,40.9465106 123.317389,42.9638066 C124.155932,42.3934441 125.043054,41.9593202 125.871093,41.4318882 C127.543802,40.3660725 129.322861,40.1755136 131.246783,40.5071299 C135.540594,41.2470242 139.644027,42.5594713 143.581589,44.4138066 C143.838929,44.534713 144.12603,44.5925378 144.557993,44.7305287 C144.461272,44.3857704 144.462147,44.2070393 144.372866,44.1115408 C144.187301,43.9104683 143.978978,43.7019486 143.736956,43.5845468 C139.432203,41.4958459 134.930069,40.0765106 130.034047,39.6726133 C131.376328,38.9230816 131.886193,38.8324018 133.192587,39.0435498 C138.383587,39.8841994 143.438039,41.2023414 148.256597,43.3510574 C148.339313,43.387855 148.468421,43.3230211 148.763399,43.2743958 C148.394895,42.8494713 148.107795,42.5169789 147.820257,42.1849245 L148.000132,41.97071 C149.734113,43.0404683 151.468093,44.1106647 153.192883,45.173852 C153.253279,44.3625529 153.221768,44.2087915 152.125885,43.4995619 C148.158125,40.9311782 143.930399,38.9642598 139.253641,38.0714804 C138.84181,37.9930665 138.436543,37.877855 138.027775,37.77929 C138.037404,37.6890483 138.046594,37.5992447 138.056223,37.5094411 C139.657157,37.5094411 141.408643,37.0827644 142.829702,37.5882931 C147.313455,39.1846073 151.305286,41.7481722 154.985071,44.7734592 C155.487059,45.1861178 155.931714,45.6679909 156.402629,46.1183233 C156.51992,46.037719 156.638086,45.9566767 156.755377,45.8765106 C156.485345,45.4239879 156.308533,44.8610725 155.927775,44.5382175 C154.566237,43.3834743 153.209951,42.1958761 151.714054,41.2338822 C149.524039,39.8259366 147.216296,38.6024169 144.958445,37.3009215 C145.77423,37.4161329 146.601394,37.6132628 147.326147,38.0013897 C151.661973,40.3235801 155.480932,43.3821601 159.246934,46.5086405 C161.481152,48.363852 162.984052,50.6720242 163.535932,53.5623867 C163.596328,53.8782326 163.780142,54.1699849 163.906624,54.473565 C164.034856,54.447719 164.163964,54.4223112 164.292196,54.3964653 C164.836198,52.4624018 164.173592,50.5804683 163.630465,48.7576737 C163.075083,46.894577 162.23479,45.1169033 161.504785,43.2651964 C162.522766,43.7698489 163.544685,44.3275076 164.033981,45.5072205 C165.204264,48.331435 166.358792,51.1626586 167.521636,53.9899396 C167.628861,54.2514653 167.751404,54.506858 167.866944,54.7648792 C167.98336,54.7197583 168.099775,54.6755136 168.216191,54.6308308 C167.981609,51.3935196 166.337347,48.6223112 164.875149,45.7025982 C167.399093,46.7565861 168.427577,48.6643656 168.70111,51.1236707 C168.87267,52.6621601 169.105501,54.197145 169.399604,55.7167976 C169.482321,56.1430363 169.878396,56.5092598 170.130484,56.9035196 C170.250839,56.4273414 170.477105,55.9489728 170.467915,55.475423 C170.452597,54.6908459 170.285851,53.9093353 170.183003,53.1265106 C170.681489,53.9356193 171.007541,54.7850302 171.37123,55.6182326 C172.09292,57.2732477 172.190516,57.3512236 173.158167,57.1663595 C172.291614,55.0448036 171.430751,52.9355136 170.569012,50.8266616 C170.660482,50.7570091 170.751951,50.6877946 170.843858,50.6190181 C172.549829,52.2122659 174.256675,53.8050755 175.962646,55.3983233 C176.054115,55.3426888 176.145585,55.2874924 176.237054,55.231858 C175.991968,54.7872205 175.837477,54.243142 175.483854,53.9145921 C174.091242,52.6183535 172.63736,51.3873867 171.201421,50.1380211 C170.994849,49.958852 170.659607,49.8580967 170.558509,49.6395015 C170.113854,48.6814502 169.733096,47.6936103 169.217541,46.446435 C172.47499,48.0024471 175.626966,49.5089577 178.827959,51.0382477 C179.0888,50.1647432 178.427069,49.8160423 177.884379,49.4905589 L177.884379,49.4905589 Z" id="Fill-3" fill="#02374E" mask="url(#mask-35)"/>
                </g>
                <path d="M145.712521,5.25670997 C139.780575,10.9905619 133.21622,16.1352145 128.629181,23.2152447 C128.822624,22.6772991 128.923722,22.0780242 129.226577,21.6110453 C130.303641,19.9498973 131.245032,18.1327976 132.609196,16.7388701 C136.269724,12.9977825 140.114066,9.43586405 143.910704,5.82926284 C144.336541,5.42405136 144.92212,5.18661934 145.433736,4.87121148 C145.526519,4.99956495 145.619739,5.1283565 145.712521,5.25670997" id="Fill-6" fill="#02374E"/>
                <path d="M103.529486,14.0847568 C103.295779,12.3154063 103.190743,10.7033218 102.845872,9.14468127 C102.497063,7.56413746 101.988073,6.00681118 101.40687,4.49372961 C100.843611,3.02795921 100.100039,1.63140332 99.340711,4.38066465e-05 C102.461176,0.801267372 105.435902,11.1851949 103.529486,14.0847568" id="Fill-8" fill="#02374E"/>
                <path d="M28.2946482,20.2236888 C31.1717778,20.7331601 41.5108878,31.7811964 42.3376139,35.1525559 C38.5247826,29.3604411 33.1635357,25.0358489 28.2946482,20.2236888" id="Fill-10" fill="#02374E"/>
                <path d="M67.1021545,15.976065 C65.2443183,19.5809139 63.874465,23.3132402 63.9015995,27.6741918 C61.971113,24.8622432 64.8101667,16.9183459 67.1021545,15.976065" id="Fill-12" fill="#02374E"/>
                <path d="M94.2319022,1.51474622 C96.4993814,2.18148338 99.9870367,9.64394562 99.0692787,12.0020574 C97.9475746,8.1707281 96.6836333,4.64779758 94.2319022,1.51474622" id="Fill-14" fill="#02374E"/>
                <path d="M11.759556,42.2656163 C16.8196978,42.7102538 21.5704191,44.306568 26.216979,46.2756767 C21.3979839,44.939574 16.5789888,43.6025952 11.759556,42.2656163" id="Fill-16" fill="#02374E"/>
                <path d="M67.4175709,25.3880982 C66.9457812,23.6156813 69.4552824,18.1560589 71.1148619,17.2448807 C69.9248839,19.8662704 68.6561284,22.6602583 67.4175709,25.3880982" id="Fill-18" fill="#02374E"/>
            </g>
</svg>