<svg xmlns="http://www.w3.org/2000/svg" xmlns:xlink="http://www.w3.org/1999/xlink" width="75" height="130px" viewBox="" version="1.1">
    <title>Franchise - 1</title>
<g xmlns="http://www.w3.org/2000/svg" id="Group-12" >
                <path d="M16.533583,66.4552772 C16.533583,54.4766885 16.5164477,42.4976862 16.5462304,30.5190976 C16.5531661,27.7690317 16.7179908,25.0193795 16.8154985,22.2697273 C16.8412014,21.5586318 16.9158621,21.1346219 17.8619723,20.8467089 C21.8699872,19.6259742 25.9999888,19.4046617 30.1095912,19.017882 C39.8399614,18.1024344 49.5984823,18.2728657 59.3512914,18.3729734 C61.0615519,18.3907611 62.7709964,18.7353467 64.4747291,18.9761015 C65.1944093,19.0778639 65.8059743,19.3860467 65.8749232,20.2750195 C66.2359873,24.9047935 66.8414325,29.528776 66.9246609,34.1631003 C67.1062128,44.3132757 67.0666386,54.4684152 67.0393038,64.6214863 C67.012785,74.4787846 66.7928827,84.3369103 66.854488,94.1933813 C66.8777429,97.9722399 67.4215829,101.750685 67.7769352,105.524579 C67.9315604,107.176356 67.7993742,107.400151 66.2221159,107.340996 C58.5275758,107.052669 50.8342597,106.718012 43.1380877,106.478912 C36.4108729,106.269596 29.7375117,106.951734 23.0837336,107.903171 C21.784311,108.088908 20.4506179,108.011552 19.1348761,108.093045 C18.637954,108.123656 18.1336883,108.213422 17.6571653,108.359033 C16.8718,108.598961 16.442603,108.319321 16.3393836,107.526733 C16.2871619,107.124234 16.3087849,106.710152 16.3087849,106.301034 C16.307561,93.0189775 16.3079689,79.7369205 16.3079689,66.4548635 C16.3830376,66.4552772 16.4581063,66.4552772 16.533583,66.4552772" id="Fill-1" fill="#E7E1D9"/>
                <g id="Group-5">
                    <mask  fill="white">
                        <use xmlns:xlink="http://www.w3.org/1999/xlink" xlink:href="#path-32"/>
                    </mask>
                    <g id="Clip-4"/>
                    <path d="M14.2092213,126.392438 C14.2006148,126.43247 14.1911885,126.472089 14.182582,126.512121 C14.4879098,126.60993 14.7862705,126.758089 15.0989754,126.797708 C18.6313525,127.250438 22.1555328,127.872787 25.7026639,128.07666 C29.5555328,128.297867 33.4329918,128.042406 37.2961066,128.143105 C47.0260246,128.396502 56.7293033,127.923549 66.4260246,127.208756 C66.8932377,127.174089 67.4563525,127.12374 67.7915984,126.852184 C69.4616803,125.498121 70.9317623,124.001676 71.689959,121.863898 C72.5264344,119.504502 72.6821721,117.074946 72.7219262,114.633422 C72.785041,110.774279 72.6981557,106.913486 72.7194672,103.05393 C72.7920082,89.9160889 72.8866803,76.779073 72.9644951,63.6416444 C72.969877,62.7151365 72.9047131,61.7882159 72.8768443,60.8617079 C72.7190574,55.5969143 72.4096311,50.3317079 72.4411885,45.0685651 C72.4870902,37.4286921 72.8256148,29.7912952 72.9456967,22.1510095 C73.0010246,18.6311048 72.9120902,15.1033587 72.7432377,11.5863429 C72.605123,8.71066032 71.2821721,6.64015238 69.1969262,5.68269206 C69.3493852,6.06072381 69.460041,6.36364444 69.5920082,6.65666032 C71.0625,9.92812063 71.5956967,13.351454 71.4788934,16.9386286 C71.2067623,25.2821524 70.9243852,33.6277397 70.8428279,41.9741524 C70.7309426,53.4030095 70.885041,64.8343429 70.7702869,76.2627873 C70.6465164,88.543454 70.3665984,100.823295 70.0903689,113.101486 C70.0530738,114.755994 69.7797131,116.438152 69.3694672,118.043962 C68.4768443,121.539105 66.7317623,124.268692 62.7030738,124.579454 C60.8063525,124.725962 58.9096311,124.876597 57.0153689,125.051168 C53.3170082,125.392057 49.6243852,125.824152 45.9202869,126.081676 C42.2477459,126.336311 38.5538934,126.305771 34.8870902,126.611994 C30.0305328,127.017263 25.1834016,127.224851 20.3202869,126.861263 C18.282582,126.708978 16.2461066,126.548851 14.2092213,126.392438 M3.03504098,90.5305968 C3.03504098,93.1099619 2.96536885,98.1205333 3.0567623,103.128216 C3.13258197,107.274597 3.3329918,111.42139 3.60184426,115.559517 C3.7920082,118.490089 5.20471311,120.860216 7.76946721,122.239867 C9.53053279,123.187422 11.4817623,124.040057 13.4329918,124.3112 C17.2518443,124.842343 21.1284836,125.127517 24.9838115,125.158883 C28.7665984,125.189422 32.5506148,124.750724 36.3362705,124.567486 C42.9153689,124.24847 49.4961066,123.971962 56.0752049,123.66739 C59.2338115,123.521295 62.2592213,122.867168 65.0670082,121.317073 C66.0653689,120.766121 66.7977459,120.059994 67.0108607,118.917232 C67.3231557,117.24374 67.7596311,115.573137 67.8592213,113.884375 C68.0620902,110.443295 68.0973361,106.991486 68.1620902,103.54339 C68.3297131,94.5312952 68.5272541,85.5196127 68.6178279,76.5071048 C68.7317623,65.1166286 68.7407787,53.7257397 68.8215164,42.3348508 C68.8391393,39.8504063 68.9907787,37.3663746 69.0452869,34.8815175 C69.2125,27.2086286 69.4411885,19.5361524 69.4914526,11.8624381 C69.5239754,6.77716825 66.5018443,3.22754921 61.5178279,2.2919619 C59.6088115,1.93415238 57.6436475,1.71789841 55.7043033,1.7165085 C48.5215164,1.71253333 41.3375,1.79300952 34.155123,1.90154921 C26.207582,2.02164444 18.2481557,1.77072381 10.3231557,2.68732698 C8.16536885,2.93659683 5.95758197,3.03688254 4.67520492,5.10780317 C3.97069672,6.2456127 3.27520492,7.55262857 3.12602459,8.84767619 C2.56618852,13.7005968 1.8522541,18.5836444 1.88790984,23.4501841 C1.98995902,37.3577079 1.73872951,51.2705968 2.55758197,65.174819 C3.00635246,72.7985968 2.8682377,80.4566286 3.03504098,90.5305968 M1.07438525,89.3251048 C0.925204918,81.1119937 1.02315574,74.3107238 0.632172131,67.5379302 C-0.160040984,53.8198349 0.018647541,40.0963746 0.0141393443,26.373327 C0.0125,20.6974857 0.231352459,15.0270095 1.35881148,9.43618413 C1.93913934,6.56008889 3.06905738,4.06491429 5.91864754,2.75748571 C6.82602459,2.34107302 7.69651639,1.92713651 8.75840164,2.36583492 C9.15553279,2.52926349 9.70102459,2.35881905 10.1739754,2.30145397 C13.6739754,1.88091429 17.1641393,1.19542222 20.6735656,1.06913651 C32.1202869,0.65767619 43.5735656,0.422438095 55.0260246,0.187612698 C57.0411885,0.146755556 59.0956967,0.252819048 61.0752049,0.611453968 C65.1370902,1.34812063 68.7215164,3.23291429 71.8489754,5.92205714 C73.4411885,7.29139048 74.1604508,9.2603746 74.2313525,11.2792952 C74.4637295,17.9101206 74.6002049,24.5467238 74.6346311,31.1816762 C74.657582,35.5195492 74.3178279,39.859073 74.3571721,44.1965333 C74.4268443,51.8739619 74.7534836,59.5489143 74.8010246,67.2267556 C74.8477459,74.7201206 74.6637295,82.2147238 74.6120902,89.7089143 C74.5571721,97.7239302 74.5625,105.739359 74.4920082,113.754375 C74.4645492,116.866121 74.530123,120.038533 73.1502049,122.922883 C72.4133197,124.464311 71.4354508,125.928152 70.3567623,127.254152 C69.3362705,128.508343 67.7170082,128.658565 66.2034836,128.754724 C61.3915984,129.060121 56.5793033,129.444756 51.7616803,129.552883 C46.792418,129.664724 41.8165984,129.471168 36.8440574,129.443517 C32.9030738,129.421232 28.9625,129.466629 25.0219262,129.44847 C20.9452869,129.429898 16.9456967,128.842629 13.0842213,127.509613 C9.10184426,126.134914 5.91741803,123.489517 3.29651639,120.327835 C2.21413934,119.02247 1.82561475,116.930914 1.61618852,115.138152 C1.23954918,111.908375 1.13790984,108.635263 1.09569672,105.377835 C1.02028689,99.5534222 1.07438525,93.7277714 1.07438525,89.3251048" id="Fill-3" fill="#02374E" mask="url(#mask-33)"/>
                </g>
                <path d="M13.4399585,16.5109809 L13.4399585,102.598943 C29.4238949,99.0426423 45.2572857,99.5473168 61.1535057,100.478069 C61.1265789,100.169473 61.1135235,99.8774236 61.0735412,99.5895109 C60.2991905,93.9789365 60.0768401,88.3389917 60.1719,82.6808455 C60.3950664,69.4066641 60.705133,56.1337237 60.8054967,42.8587149 C60.8581265,35.9115803 60.5537716,28.9619637 60.3860908,22.0144154 C60.3379488,20.0201237 60.2037226,18.0287276 60.0951993,15.7485914 C44.4005225,14.3603228 28.7886662,14.4211319 13.4399585,16.5109809 M11.9683658,61.8824631 C11.9683658,49.9034751 11.9512306,37.9249008 11.9810133,25.9463265 C11.987541,23.1958503 12.1527739,20.446615 12.2502817,17.6965524 C12.2755766,16.9854577 12.3506454,16.5618621 13.2963487,16.2739494 C17.3047763,15.0532161 21.4347826,14.8314903 25.5443898,14.4451247 C35.2747711,13.5296781 45.0333033,13.7001092 54.7861237,13.7998031 C56.4959781,13.8175908 58.2062405,14.162176 59.9091593,14.4029306 C60.6292483,14.5042791 61.240406,14.8132889 61.309763,15.7022607 C61.6712355,20.3316154 62.2758655,24.9560061 62.3590939,29.5899112 C62.5410541,39.7400745 62.5014798,49.8956154 62.4741449,60.0486744 C62.4472181,69.9059609 62.2277235,79.7636612 62.2889209,89.6201204 C62.3129919,93.3993881 62.8564245,97.1778285 63.2113692,100.951718 C63.3668105,102.603493 63.2342162,102.827288 61.6569561,102.768133 C53.9619991,102.479393 46.2690821,102.14515 38.5729012,101.905636 C31.8452707,101.696734 25.1723098,102.378872 18.5181161,103.330308 C17.2190999,103.515631 15.8849973,103.438688 14.5696619,103.519767 C14.0727393,103.550792 13.568065,103.640558 13.0919495,103.786169 C12.3065833,104.026097 11.8773858,103.746457 11.7741662,102.95387 C11.7219444,102.550544 11.7435675,102.136876 11.7435675,101.727759 C11.7423436,88.4457179 11.7427516,75.1640905 11.7427516,61.8820494 C11.8178203,61.8820494 11.8928891,61.8824631 11.9683658,61.8824631" id="Fill-6" fill="#02374E"/>
                <path d="M31.9414723,113.324745 C31.9877407,113.562528 32.0091253,113.908089 32.122269,114.21381 C32.6631039,115.675734 34.2303975,116.736741 35.601342,116.598349 C37.2957765,116.427665 38.8490729,115.151941 39.1706189,113.600691 C39.2584899,113.176708 39.2981486,112.665076 39.1585657,112.277578 C38.783364,111.236282 38.3972755,110.170662 37.8350561,109.243016 C37.024387,107.905225 35.9240544,107.632215 34.5639966,108.309078 C32.6308327,109.271533 32.1494858,111.166247 31.9414723,113.324745 M36.1180706,107.135679 C37.8128939,107.278686 39.2635445,109.14698 40.4851859,111.243411 C41.4688755,112.931795 41.1698805,114.695247 40.143033,116.234336 C38.8708463,118.139954 37.0558806,119.076827 34.8793216,118.865045 C32.7148157,118.65494 31.1829038,117.34315 30.3407411,115.190943 C28.9892371,111.738268 31.8100545,107.133164 36.1180706,107.135679" id="Fill-8" fill="#02374E"/>
                <path d="M30.2707766,7.47463061 C32.7116979,9.61354672 42.1675372,9.40642331 43.927638,7.1692459 C43.5227056,7.0322509 43.1671256,6.84551365 42.7937463,6.79658686 C40.069251,6.43779041 37.3483965,5.99663387 34.6109563,5.8094889 C33.0146893,5.70021908 31.5535346,6.40272622 30.2707766,7.47463061 M38.0712878,4.57286432 C40.0275847,4.87621041 41.9907585,5.14286141 43.9369421,5.50043469 C44.7807873,5.65536952 45.7014928,6.11283499 45.6501177,7.05386023 C45.6129012,7.73312714 45.0914647,8.54694273 44.5429249,9.00522365 C43.078534,10.2279856 41.2221555,10.5345935 39.4090615,10.4347013 C36.9224286,10.298114 34.4507633,9.8887599 31.973839,9.58582154 C31.7246498,9.5552423 31.4762697,9.47328992 31.241239,9.38032903 C30.4046754,9.04844231 29.4083232,8.82052502 29.3504757,7.68379263 C29.2906056,6.51688872 30.2566182,6.22740522 31.1057222,5.89307217 C33.3342663,5.01565176 35.6433115,4.67031018 38.0340713,4.87661813 C38.0466116,4.77550277 38.0587475,4.67438741 38.0712878,4.57286432" id="Fill-10" fill="#02374E"/>
            </g>
</svg>