<svg xmlns="http://www.w3.org/2000/svg" xmlns:xlink="http://www.w3.org/1999/xlink" width="114px" height="130px" viewBox="" version="1.1">
    <title>Franchise - 1</title>
<g xmlns="http://www.w3.org/2000/svg" id="Group-14">
                <path d="M10.7792302,45.7788123 C10.8459512,46.76557 10.9316721,47.760314 11.1291837,48.7266621 C12.7645093,56.7298703 16.100114,63.8678908 22.1650907,69.4556724 C31.4768581,78.0356724 42.0408581,83.0049556 55.110207,80.8095973 C66.4076953,78.9119522 74.8282302,73.1662184 79.9546953,62.7777543 C80.6634395,61.34243 81.3452302,59.8880273 81.935114,58.4012355 C85.7841605,48.709802 86.7425558,38.9163208 82.4154163,29.1312696 C74.8445791,12.0098703 60.6034163,5.40604778 43.4716023,4.65488737 C37.1035093,4.37536519 31.224114,6.78768601 26.2540674,10.7418157 C15.8778581,18.9957065 11.7650209,30.4130785 10.7677419,43.2338294 C10.7677419,44.0826007 10.7226721,44.9340341 10.7792302,45.7788123 Z" id="Fill-1" fill="#E0E9EF"/>
                <g id="Group-5" transform="translate(0.000000, 0.251126)">
                    <mask  fill="white">
                        <use xmlns:xlink="http://www.w3.org/1999/xlink" xlink:href="#path-30"/>
                    </mask>
                    <g id="Clip-4"/>
                    <path d="M67.3250419,72.3032048 C65.2452047,73.7513959 63.2630186,75.1028635 61.3298791,76.5213276 C61.1283907,76.6695188 61.0435535,77.3887338 61.203507,77.5564471 C62.3753209,78.7872321 63.6235767,79.9461399 64.794507,81.0762082 C66.8809721,79.396413 68.7690419,77.8767884 70.6350186,76.3740239 C69.4349256,74.8983242 68.3541349,73.5694846 67.3250419,72.3032048 M2.85229767,37.1543993 C2.73476279,48.3681195 5.19813488,55.1645017 9.29683256,61.2647406 C14.7348093,69.3584608 22.5186233,74.5575734 31.6112279,77.7317031 C36.8304837,79.5543652 42.231786,79.382215 47.675507,78.6297235 C54.8292279,77.6407474 60.8601814,74.4568567 66.0904837,69.632215 C70.0535302,65.9771297 72.4802279,61.265628 74.4005535,56.3216348 C77.2037163,49.1041945 78.6671581,41.7576416 77.2470186,33.8831024 C75.1521581,22.2678464 64.9739023,9.31798294 53.6591814,5.66999659 C50.9488093,4.79637884 48.2026465,4.03545734 45.4940419,3.15562799 C42.3170651,2.12405802 39.0185767,1.99272696 35.7483674,1.94613993 C30.603786,1.87204437 25.8904605,3.64412628 21.4590419,6.10170307 C16.3029721,8.96170307 12.4605535,13.2099966 9.55311163,18.2981877 C5.56487907,25.2769249 2.93315814,32.6878123 2.85229767,37.1543993 M75.4274372,74.4093823 C71.3260884,77.8235461 67.3568558,81.1418737 63.3699488,84.4384608 C62.1490884,85.4474027 62.0558558,85.5955939 63.090693,86.785116 C64.7529721,88.6942969 66.5270419,90.5049795 68.1990419,92.4070614 C75.7349721,100.982625 83.2298093,109.59457 90.7869488,118.151942 C93.4703674,121.190747 96.2947395,124.103546 99.0364837,127.090884 C99.684693,127.798119 100.36074,127.925901 101.287763,127.662795 C104.249112,126.82201 107.001019,125.530884 109.487809,123.746379 C110.280065,123.178017 111.010902,122.236515 111.299879,121.316754 C111.700205,120.043819 111.784158,118.626242 111.75367,117.276993 C111.735995,116.506311 111.395321,115.600747 110.900437,115.007539 C108.635019,112.292625 106.263112,109.666891 103.930088,107.008768 C96.3451116,98.3670956 88.7557163,89.728529 81.1778093,81.0806451 C79.2486465,78.8795188 77.3543907,76.6473345 75.4274372,74.4093823 M63.7234372,82.2919078 C62.5034605,80.7620785 61.3466698,79.2761741 60.1337628,77.8373003 C59.9839721,77.6598259 59.4603674,77.5950478 59.2363442,77.7152867 C51.8793674,81.6587679 43.9806698,82.5031024 35.8561814,81.6512253 C33.4171116,81.3956621 30.9453442,80.7443311 28.6604837,79.8369932 C20.6535302,76.6579829 13.6040884,72.0143652 8.3318093,65.059587 C3.09708837,58.1531706 -0.156772093,50.3895529 0.00583255814,41.5912594 C0.259460465,27.8738191 5.35853023,16.2421468 15.8893907,7.33204437 C20.8130419,3.16672014 26.7529721,1.22559386 33.1749721,0.784569966 C34.0463209,0.724672355 34.8999953,0.358187713 35.768693,0.329791809 C37.7999256,0.263682594 39.8850651,0.0298600683 41.8566465,0.382590444 C45.6005302,1.05211263 49.315693,1.95723208 52.9791581,2.99279522 C60.8535535,5.21965529 66.9441581,10.0154573 71.8576465,16.4888362 C77.5125767,23.9392116 80.4522744,32.3257645 80.2229488,41.6715666 C80.0859721,47.2624539 78.6150186,52.6532389 76.441507,57.8195188 C74.3537163,62.7817031 71.8602977,67.4940922 67.9860651,71.3670273 C69.1494837,72.5649795 70.2059721,73.7181195 71.3508326,74.7749795 C71.5660186,74.9737509 72.2380884,74.938256 72.5195535,74.7456962 C73.2419953,74.2505427 73.819507,73.5437509 74.5370884,73.0379488 C75.3342047,72.4762423 75.8339488,72.7415666 76.1167395,73.6666519 C76.2258791,74.0220444 76.4388558,74.3787679 76.6938093,74.6503038 C85.2495535,83.7747065 93.8296,92.8769249 102.375181,102.011532 C105.671902,105.535287 108.88953,109.13358 112.15267,112.68928 C114.227647,114.951191 114.461391,118.529519 113.101786,121.305662 C111.11474,125.362283 107.491926,127.07713 103.638019,128.574126 C102.965949,128.835457 102.263391,129.017369 101.589553,129.273819 C100.061158,129.855491 98.7501581,129.535594 97.6543442,128.341635 C94.0142977,124.374638 90.2805767,120.48928 86.7686698,116.410918 C80.1018791,108.669485 73.5658791,100.814024 66.9711116,93.009587 C65.6212279,91.4118737 64.2470419,89.8350137 62.8967163,88.2381877 C62.6117163,87.90143 62.362507,87.5309522 62.1256698,87.1573686 C60.889786,85.209587 60.924693,85.0210205 62.6148093,83.480099 C62.9948093,83.1340239 63.3204605,82.7271638 63.7234372,82.2919078" id="Fill-3" fill="#02374E" mask="url(#mask-31)"/>
                </g>
                <path d="M74.5048326,82.7266314 C76.276693,84.5847884 78.0684372,86.4238669 79.8164372,88.3046519 C86.9887163,96.023901 94.1773442,103.728065 101.293507,111.500113 C103.381298,113.779771 105.256553,116.25687 107.203833,118.664311 C107.536995,119.076495 107.740251,119.594276 108.0036,120.063253 C107.894902,120.197689 107.786205,120.332126 107.677949,120.467007 C107.194995,120.192365 106.608647,120.016666 106.246321,119.629328 C103.829344,117.046188 101.465391,114.412911 99.0749256,111.804481 C95.3522512,107.742536 91.527507,103.769771 87.9192744,99.6075529 C83.3879953,94.3800444 79.0312512,89.0003515 74.6029256,83.6827747 C74.4314837,83.4764608 74.2958326,83.2399761 74.1438326,83.0176894 L74.5048326,82.7266314 Z" id="Fill-6" fill="#02374E"/>
                <path d="M69.2538512,86.4485802 C69.5940837,86.8053038 69.9449209,87.1522662 70.2723395,87.5205256 C76.8984791,94.9788874 83.4786651,102.478068 90.1657814,109.880969 C92.9393395,112.95172 95.9528279,115.804177 98.8284558,118.783973 C99.7749209,119.764962 100.678967,120.796976 101.49906,121.884451 C101.738107,122.201242 101.617037,122.791345 101.661665,123.256328 C101.25206,123.11213 100.734642,123.081072 100.4492,122.806874 C91.3769209,114.108853 83.042107,104.734212 75.214107,94.901686 C73.3114558,92.5115495 71.5117581,90.038 69.6727349,87.5963959 C69.4425256,87.2906962 69.2604791,86.9486143 69.0558977,86.6233925 C69.1217349,86.5652696 69.188014,86.5067031 69.2538512,86.4485802" id="Fill-8" fill="#02374E"/>
                <path d="M8.26893256,41.3806416 C8.26893256,42.1056246 8.23004884,42.8328259 8.27865349,43.5547031 C8.33521163,44.3977065 8.40856047,45.2473652 8.57735116,46.0726212 C9.97451395,52.9098225 12.824514,59.007843 18.0053279,63.7810171 C25.9601419,71.1107099 34.9847,75.3558976 46.1491884,73.4808805 C55.8003047,71.8596519 62.9942349,66.9511536 67.3739558,58.0765461 C67.9788628,56.850198 68.5612349,55.6078771 69.0658395,54.3376041 C72.3537233,46.0584232 73.1724907,37.6922799 69.475886,29.3327918 C63.0079326,14.7066826 50.8421884,9.06521502 36.206886,8.42364505 C30.7667,8.18494198 25.7440721,10.2458635 21.4982349,13.6232014 C12.634514,20.6742594 9.12083953,30.4278089 8.26893256,41.3806416 M40.3758395,76.4717679 C35.9002349,76.4384915 31.6884209,75.4663754 27.6873744,73.4804369 C22.7186535,71.0135427 18.0972349,68.085215 14.4465837,63.802314 C5.90586279,53.7834403 3.54146744,42.5213584 7.8359093,30.0009829 C9.54546744,25.0161706 11.9633279,20.3800956 15.5185372,16.4246348 C20.4859326,10.8980819 26.6693279,7.8863413 34.0691651,7.37299659 C34.8207698,7.32019795 35.5617698,7.09879863 36.3054209,6.94794539 C39.1470256,6.36982253 41.8905372,7.01982253 44.6247698,7.65251877 C49.2793279,8.7297884 53.9617233,9.77777474 58.0202116,12.4922457 C66.4217465,18.111529 71.7757698,25.8702662 73.4296535,35.8882526 C75.2293512,46.7900614 71.8270256,56.5209829 65.3793977,65.0903345 C60.6735837,71.3449761 54.0134209,74.7835427 46.2278395,75.8404027 C44.2845372,76.1039522 42.3270953,76.2641229 40.3758395,76.4717679" id="Fill-10" fill="#02374E"/>
                <path d="M21.073386,56.9443038 C20.3001302,54.2901741 19.3881302,51.6058737 18.7500837,48.8567952 C17.9392698,45.3614369 17.5575023,41.8110614 18.3616884,38.2300717 C18.6780605,36.8209249 18.9599674,35.3989113 19.1605721,33.9693549 C19.3382,32.7026314 18.458014,31.3387406 17.4426186,31.1084676 C16.4369442,30.8799693 15.4608744,31.5707884 14.9496419,32.891198 C14.8343163,33.1884676 14.7379907,33.4994915 14.6858512,33.8127338 C13.6682465,39.9617782 14.3862698,45.9085017 16.846107,51.6236212 C17.7824093,53.7994573 19.2913628,55.5626655 21.073386,56.9443038 M12.5225023,37.8746792 C12.8287116,36.156727 13.062014,34.1095597 13.5798744,32.1373754 C14.1335256,30.0280922 16.019386,28.8802765 17.8164326,29.2826997 C19.7610605,29.718843 21.2037349,31.9084334 20.8838279,34.0044061 C20.757014,34.8372048 20.6200372,35.6868635 20.3354791,36.4730751 C19.0589442,40.004372 18.8799907,43.5778191 19.4729674,47.2839283 C19.9325023,50.1572389 20.4428512,52.9830751 21.6349907,55.6536212 C22.3128047,57.172802 23.0175721,58.6458396 24.5216651,59.5624949 C24.7938512,59.7288771 24.8932698,60.1809932 25.0722233,60.5013345 C24.7103395,60.5940648 24.3228279,60.8167952 23.9932,60.7502423 C23.4156884,60.6339966 22.8319907,60.4108225 22.3229674,60.1100034 C18.4792233,57.8352253 15.7516186,54.6575461 14.4096884,50.3165222 C13.4274326,47.1392867 12.8808512,43.9101399 12.8238512,40.5864881 C12.8105953,39.7900717 12.6519674,38.9963174 12.5225023,37.8746792" id="Fill-12" fill="#02374E"/>
            </g>
  
</svg>